<?xml version="1.0" encoding="UTF-8" standalone="no"?>
<!DOCTYPE svg PUBLIC "-//W3C//DTD SVG 1.1//EN" "http://www.w3.org/Graphics/SVG/1.1/DTD/svg11.dtd">
<svg xmlns="http://www.w3.org/2000/svg" version="1.1" viewBox="0.00 0.00 1008.00 1210.00">
<path fill="#5f241a" d="
  M 799.18 465.96
  C 797.59 470.47 796.25 475.06 795.17 479.72
  C 793.63 486.34 791.28 492.38 790.80 497.43
  C 790.11 504.58 789.29 510.83 788.32 516.18
  C 788.25 516.57 788.21 516.97 788.19 517.37
  L 787.42 536.19
  C 786.91 538.44 786.67 540.78 786.00 542.86
  C 784.00 549.13 782.22 555.21 780.67 561.09
  C 779.04 567.28 777.20 573.00 775.17 578.27
  C 771.13 588.78 768.94 594.39 768.60 595.11
  C 767.49 597.47 764.94 603.18 760.94 612.23
  C 757.09 620.92 751.63 631.62 744.55 644.32
  C 741.06 650.57 735.65 659.12 728.34 669.96
  C 722.69 678.34 716.58 686.38 710.01 694.09
  C 688.67 719.14 664.95 741.18 638.06 758.79
  C 634.27 761.28 628.29 764.98 620.14 769.89
  C 618.14 771.10 613.77 773.49 607.02 777.08
  C 602.63 779.41 598.34 781.96 594.15 784.73
  C 591.86 783.32 589.18 781.98 586.09 780.69
  C 583.42 779.58 581.48 778.64 580.27 777.86
  C 576.56 775.46 573.64 772.25 568.73 771.51
  C 558.66 766.11 548.37 770.38 540.60 777.87
  C 540.35 778.10 540.15 778.37 539.98 778.66
  C 536.73 784.33 533.50 790.69 536.83 796.94
  C 536.97 797.21 537.14 797.45 537.33 797.68
  L 542.31 803.50
  C 540.30 805.13 538.63 807.00 537.30 809.13
  C 533.86 805.98 530.26 807.67 526.69 808.39
  C 523.11 809.11 519.88 810.54 516.37 811.10
  C 514.75 811.37 512.93 811.78 510.91 812.33
  C 504.70 814.03 499.30 815.23 494.73 815.93
  C 487.72 817.00 482.71 817.92 479.68 818.68
  C 478.88 818.88 476.99 819.04 474.00 819.17
  C 471.07 819.29 467.99 820.12 465.24 820.77
  C 464.96 820.84 464.70 820.95 464.47 821.11
  L 461.66 823.04
  L 455.98 818.94
  C 458.76 813.87 462.51 808.83 461.79 802.77
  C 461.46 799.99 460.41 797.36 458.66 794.89
  C 455.19 790.00 450.58 787.20 444.82 786.47
  C 433.14 784.99 424.20 791.18 417.81 800.80
  C 411.97 809.59 406.48 819.09 401.33 829.30
  C 397.39 837.12 393.03 847.67 388.26 860.96
  C 385.50 868.64 383.38 876.28 381.91 883.88
  C 379.81 894.76 378.34 901.34 377.54 910.45
  C 376.27 924.94 376.12 939.71 377.08 954.75
  C 377.24 957.30 377.49 959.79 377.84 962.20
  C 379.71 973.29 381.98 984.25 384.67 995.09
  C 386.75 1003.51 389.79 1012.35 392.53 1020.97
  C 391.30 1019.50 390.30 1017.76 389.54 1015.75
  C 387.61 1010.64 386.27 1006.71 385.52 1003.97
  C 385.48 1003.82 385.27 1003.80 385.21 1003.95
  C 384.65 1005.42 384.29 1006.27 384.13 1006.50
  C 382.92 1008.23 381.40 1009.28 379.56 1009.67
  C 379.73 1005.64 379.20 1001.51 377.99 997.26
  C 374.69 985.67 371.60 973.37 370.83 961.53
  C 370.32 953.69 369.12 946.03 369.00 938.14
  C 368.70 918.28 370.76 898.55 375.19 878.95
  C 376.30 874.06 377.79 868.94 379.67 863.57
  C 381.24 859.09 382.91 854.00 384.67 848.31
  C 386.93 841.00 389.83 835.55 392.70 828.84
  C 393.20 827.68 392.35 826.38 391.09 826.37
  C 369.02 826.16 351.02 825.98 337.09 825.84
  C 326.98 825.74 317.05 824.45 306.82 824.38
  C 304.99 824.37 300.95 824.14 294.71 823.68
  C 285.92 823.04 279.83 822.57 276.43 822.28
  C 270.27 821.75 264.66 821.20 259.60 820.64
  C 250.08 819.59 244.46 819.04 242.75 818.99
  C 240.26 818.92 235.93 818.38 229.76 817.35
  C 225.63 816.66 224.23 814.14 223.79 809.99
  C 223.36 805.91 222.71 800.85 221.85 794.80
  C 220.85 787.84 220.95 781.33 220.22 774.62
  C 214.11 719.08 210.07 681.54 208.12 661.99
  C 207.33 654.01 206.85 649.50 206.70 648.47
  C 205.70 641.63 205.18 637.13 205.14 634.98
  C 205.02 628.60 203.67 621.53 203.05 614.34
  C 201.02 590.91 198.99 572.63 196.97 559.51
  C 196.37 555.61 196.11 552.93 196.18 551.47
  C 195.75 547.68 196.76 543.71 200.42 542.66
  C 204.66 541.45 209.39 540.81 212.71 537.50
  C 218.45 535.83 224.82 532.04 226.56 526.14
  C 227.40 523.33 227.74 519.33 227.57 514.16
  C 227.42 509.38 225.39 504.83 221.50 500.51
  C 218.51 497.18 210.79 496.55 206.87 497.08
  C 202.41 497.67 198.08 498.50 193.88 499.56
  C 193.41 496.95 191.97 494.87 189.57 493.33
  C 190.04 485.41 189.46 477.42 187.84 469.36
  C 187.61 468.22 187.32 463.89 186.98 456.38
  C 186.86 453.71 186.65 451.64 186.35 450.15
  C 185.73 447.12 185.13 444.34 185.09 441.92
  C 185.01 437.81 184.66 433.95 184.04 430.35
  C 183.15 425.18 182.70 421.33 182.70 418.80
  C 182.72 411.38 180.75 402.27 180.22 394.40
  C 179.99 390.89 179.13 382.88 177.65 370.35
  C 177.07 365.50 177.27 360.46 176.53 355.81
  C 176.22 353.87 175.99 351.94 175.82 350.02
  C 175.10 341.85 174.38 334.87 173.67 329.09
  C 173.11 324.58 172.69 320.05 172.40 315.50
  C 171.68 304.18 169.59 293.13 169.12 283.20
  C 168.75 275.42 167.37 269.68 166.99 261.66
  C 166.74 256.32 166.31 251.43 165.68 247.00
  C 164.63 239.56 164.21 230.85 163.03 223.03
  C 162.15 217.15 162.09 211.72 161.10 205.86
  C 159.84 198.44 159.61 190.53 159.20 183.26
  C 158.88 177.77 162.25 173.61 166.55 168.79
  C 175.91 158.31 185.67 146.91 195.84 134.59
  C 199.25 130.46 203.88 125.36 209.75 119.27
  C 213.04 115.86 215.85 112.34 218.81 109.31
  C 219.47 108.63 220.47 108.06 221.82 107.59
  C 222.97 107.19 229.85 105.96 242.48 103.90
  C 245.01 103.49 249.41 102.68 255.66 101.49
  C 266.96 99.33 279.43 98.13 290.04 96.98
  C 295.77 96.36 300.42 95.97 303.99 95.81
  C 311.09 95.51 317.34 93.70 324.87 93.23
  C 327.92 93.04 333.95 92.54 342.97 91.73
  C 343.88 91.65 344.71 91.15 345.21 90.37
  C 346.92 87.70 348.25 85.16 349.19 82.75
  C 350.09 80.44 351.41 77.98 353.16 75.38
  C 357.78 68.47 362.31 63.03 366.76 59.06
  C 373.10 53.41 378.94 48.45 386.46 45.24
  C 398.14 40.27 411.24 36.76 423.51 37.50
  C 426.52 37.69 430.86 38.68 436.55 40.48
  C 444.06 42.86 450.62 46.80 456.21 52.29
  C 457.16 53.23 458.38 55.29 459.86 58.48
  C 461.67 62.38 461.72 66.72 460.00 71.51
  C 458.65 75.26 456.48 77.31 453.49 77.68
  C 449.35 78.19 445.67 75.27 442.07 74.37
  C 440.94 74.09 439.41 73.41 437.48 72.34
  C 434.39 70.61 430.62 69.10 426.17 67.81
  C 411.48 63.54 397.62 64.93 384.60 72.00
  C 378.21 75.46 372.92 80.59 368.22 85.71
  C 367.81 86.16 367.02 86.79 365.86 87.59
  C 365.37 87.93 365.42 88.67 365.95 88.94
  C 367.20 89.57 368.56 89.92 370.13 89.67
  C 373.74 89.10 377.28 89.23 380.76 90.08
  C 381.46 90.25 382.17 90.34 382.89 90.36
  C 398.07 90.67 412.36 90.56 425.75 90.02
  C 430.80 89.81 435.29 89.80 439.24 89.97
  C 450.50 90.45 455.63 90.34 466.50 91.19
  C 476.33 91.96 486.12 92.71 495.87 93.44
  C 501.11 93.84 506.87 95.26 511.26 95.51
  C 519.83 96.00 526.58 96.90 531.51 98.20
  C 533.01 98.60 535.60 98.46 537.00 98.78
  C 544.82 100.54 550.29 100.93 556.90 103.28
  C 557.07 103.33 561.49 104.51 570.17 106.80
  C 575.49 108.21 579.85 109.47 583.24 110.59
  C 587.90 112.13 595.06 113.56 600.58 115.70
  C 614.43 121.08 627.76 126.90 640.59 133.17
  C 643.04 134.36 648.90 137.86 658.17 143.66
  C 663.34 146.88 672.21 153.17 684.78 162.54
  C 705.58 178.03 724.98 198.14 740.44 220.70
  C 752.33 238.05 762.27 256.57 770.24 276.24
  C 776.35 291.32 781.81 307.28 786.61 324.13
  C 788.45 330.59 789.84 336.54 790.79 341.97
  C 793.23 355.85 796.06 368.93 797.78 381.75
  C 798.56 387.58 799.02 392.66 799.16 396.98
  C 799.23 399.23 799.75 401.50 799.96 404.01
  C 801.63 424.68 801.37 445.33 799.18 465.96
  Z"
/>
<path fill="#4e1e1a" d="
  M 692.30 125.49
  C 691.82 125.99 691.04 126.04 690.51 125.60
  C 689.36 124.65 688.29 123.36 687.28 121.71
  C 685.29 118.44 683.12 114.68 680.79 110.44
  C 678.10 105.53 674.04 99.58 671.71 96.30
  C 669.51 93.20 666.98 90.48 664.11 88.14
  C 654.41 80.24 645.31 74.77 636.80 71.73
  C 632.78 70.29 626.70 69.28 618.55 68.69
  C 618.37 68.68 618.19 68.68 618.02 68.71
  L 606.82 70.46
  C 606.71 70.48 606.60 70.51 606.49 70.55
  C 599.28 73.19 594.53 75.62 589.08 78.49
  C 584.77 80.76 578.14 81.50 574.17 78.05
  C 573.93 77.83 573.73 77.57 573.60 77.27
  C 572.04 73.52 571.48 70.34 571.92 67.72
  C 572.72 63.01 574.88 58.91 578.39 55.40
  C 587.23 46.58 598.20 44.09 611.19 42.80
  C 622.37 41.70 634.56 44.04 643.87 48.71
  C 649.40 51.50 654.83 55.06 660.14 59.40
  C 670.61 67.94 679.00 81.13 683.97 92.99
  C 686.41 98.83 696.76 120.77 692.30 125.49
  Z"
/>
<path fill="#f5704b" d="
  M 339.92 99.90
  C 340.17 99.89 340.35 100.14 340.27 100.38
  C 338.67 105.07 337.09 110.43 335.52 116.46
  C 334.15 121.72 332.93 128.11 336.09 132.13
  C 336.79 133.02 337.89 133.32 338.57 132.81
  C 339.33 132.24 340.01 131.41 340.60 130.32
  C 343.90 124.26 346.66 115.62 349.56 111.33
  C 350.23 110.34 352.59 106.86 356.66 100.90
  C 357.62 99.49 358.90 99.01 360.70 98.85
  C 387.02 96.51 412.67 97.27 441.00 97.28
  C 444.41 97.28 448.16 97.48 452.27 97.89
  C 455.26 98.18 461.33 98.42 470.48 98.59
  C 478.96 98.75 484.56 99.57 493.49 100.39
  C 500.09 101.00 505.79 101.71 510.59 102.50
  C 514.04 103.07 519.71 103.91 527.61 105.00
  C 537.52 106.37 547.78 108.42 558.38 111.15
  C 564.25 112.66 569.33 113.91 573.62 114.90
  C 575.98 115.44 578.73 116.25 581.88 117.33
  C 584.59 118.26 587.32 119.18 590.05 120.09
  C 613.80 127.96 635.13 137.95 654.05 150.06
  C 660.62 154.26 664.21 156.54 664.84 156.91
  C 668.04 158.77 671.53 161.18 675.32 164.14
  C 684.99 171.69 690.92 176.44 693.12 178.39
  C 699.09 183.68 706.33 190.81 714.82 199.76
  C 720.47 205.70 724.99 211.09 728.39 215.92
  C 736.37 227.25 742.22 236.30 745.95 243.06
  C 750.07 250.53 757.62 264.62 762.12 275.63
  C 767.83 289.62 772.56 302.55 776.29 314.42
  C 780.91 329.14 784.08 347.18 787.55 364.14
  C 790.53 378.71 791.78 393.17 792.16 408.27
  C 792.19 409.48 792.36 411.45 792.65 414.18
  C 792.80 415.61 792.89 416.94 792.90 418.15
  C 792.92 420.73 792.93 422.05 792.94 422.11
  C 793.70 441.13 792.76 460.03 790.11 478.82
  C 787.92 494.46 785.05 509.16 781.51 522.93
  C 779.61 530.30 777.48 536.74 775.13 542.27
  C 771.29 551.28 768.15 560.64 763.68 569.53
  C 760.04 576.77 756.13 584.34 751.94 592.25
  C 748.23 599.26 743.70 606.47 738.36 613.90
  C 728.93 627.03 718.46 639.51 706.97 651.33
  C 685.99 672.91 661.51 690.51 634.95 705.18
  C 630.95 707.39 622.19 711.70 608.67 718.12
  C 597.50 723.43 585.22 728.31 571.81 732.77
  C 561.32 736.25 543.02 741.70 528.67 744.65
  C 522.30 745.96 518.14 746.85 516.21 747.33
  C 507.31 749.52 501.40 750.17 492.26 751.90
  C 489.74 752.38 485.89 752.89 480.71 753.43
  C 468.75 754.69 458.95 755.87 448.08 756.59
  C 426.71 758.00 405.02 758.52 383.01 758.16
  C 375.92 758.05 364.92 757.46 350.01 756.41
  C 329.42 754.96 309.11 752.95 289.10 750.39
  C 288.85 750.36 288.65 750.17 288.60 749.92
  C 287.53 744.26 286.91 739.02 286.72 734.20
  C 286.43 726.97 285.35 721.98 284.82 714.50
  C 284.30 707.23 282.68 698.47 282.37 689.91
  C 282.31 688.18 281.99 684.90 281.41 680.07
  C 280.29 670.84 279.58 663.98 279.29 659.49
  C 278.85 652.96 277.97 645.78 277.56 641.34
  C 277.18 637.24 274.47 609.20 269.43 557.23
  C 268.46 547.20 267.41 537.17 266.30 527.14
  C 265.06 516.00 264.39 507.27 263.31 494.44
  C 262.86 489.09 262.19 482.48 261.31 474.62
  C 260.38 466.42 260.22 457.00 258.95 448.16
  C 257.40 437.37 257.01 427.73 255.61 415.53
  C 254.80 408.48 254.44 400.05 253.73 393.49
  C 251.79 375.38 249.96 357.11 248.23 338.68
  C 248.10 337.19 247.97 335.71 247.84 334.24
  C 247.03 324.41 246.03 313.85 244.85 302.54
  C 243.28 287.53 241.74 272.45 240.23 257.28
  C 236.82 223.05 234.28 196.20 232.59 176.75
  C 232.03 170.30 231.45 164.29 230.85 158.71
  C 229.78 148.71 229.35 137.92 228.16 127.83
  C 227.99 126.32 227.62 122.05 227.05 115.00
  C 227.02 114.65 227.25 114.34 227.59 114.27
  C 236.50 112.48 245.11 110.85 253.41 109.36
  C 257.92 108.55 266.63 107.40 279.52 105.89
  C 289.85 104.68 299.03 103.54 307.07 102.46
  C 317.73 101.03 331.22 100.21 339.92 99.90
  Z"
/>
<g stroke-width="2.00" fill="none" stroke-linecap="butt">
<path stroke="#57211a" d="
  M 663.32 426.74
  L 661.79 420.29
  C 661.72 419.98 661.49 419.74 661.18 419.65
  C 658.02 418.74 656.07 420.66 654.74 423.08
  C 654.66 423.22 654.56 423.34 654.43 423.43
  L 632.43 439.44
  C 631.62 440.04 630.71 440.49 629.74 440.78
  C 620.72 443.50 612.71 448.25 605.70 455.02"
/>
<path stroke="#ab8b7e" d="
  M 605.70 455.02
  C 586.63 464.49 566.21 470.37 544.42 472.67
  C 543.49 472.76 542.20 473.31 541.02 473.40
  C 536.57 473.74 529.73 474.09 520.51 474.45
  C 501.99 475.16 483.75 474.20 465.79 471.55
  C 454.94 469.96 444.75 467.80 435.22 465.07
  C 425.09 462.17 415.18 458.94 405.47 455.38
  C 393.42 450.96 379.58 443.70 366.97 437.33"
/>
<path stroke="#57211a" d="
  M 366.97 437.33
  C 364.15 435.83 361.18 434.52 358.06 433.40
  C 349.40 430.31 351.20 439.78 352.65 444.03
  C 357.60 458.55 364.21 472.24 373.88 485.65
  C 381.75 496.58 388.14 504.81 393.03 510.32
  C 400.85 519.13 410.89 525.59 423.14 529.70"
/>
<path stroke="#954c3e" d="
  M 423.14 529.70
  C 421.92 530.41 421.69 531.12 422.45 531.83
  C 427.47 536.49 433.77 540.62 441.36 544.22
  C 449.38 548.03 454.72 550.45 457.38 551.48
  C 466.31 554.97 474.60 557.14 482.25 557.99
  C 491.86 559.06 501.72 559.22 511.84 558.46
  C 520.29 557.82 528.26 556.23 535.74 553.70
  C 545.84 550.28 555.57 546.23 564.43 540.80
  C 566.46 539.55 568.50 538.35 570.54 537.18"
/>
<path stroke="#57211a" d="
  M 570.54 537.18
  L 583.11 538.98"
/>
<path stroke="#8c493e" d="
  M 570.54 537.18
  C 562.11 532.13 553.92 528.26 545.97 525.56
  C 529.51 519.96 513.50 521.63 496.64 526.01
  C 496.30 526.10 496.26 526.56 496.58 526.71
  C 500.71 528.62 504.03 530.47 507.58 533.88
  C 511.23 537.39 513.40 539.38 514.11 539.83
  C 514.48 540.07 514.47 540.63 514.08 540.85
  L 513.06 541.44
  C 512.42 541.81 511.64 541.78 511.03 541.38
  C 498.57 533.08 485.54 527.31 471.95 524.07
  C 464.92 522.39 457.00 521.83 448.20 522.39
  C 442.60 522.75 434.56 524.88 430.17 525.88
  C 428.22 526.33 425.88 527.60 423.14 529.70"
/>
<path stroke="#a2887e" d="
  M 366.97 437.33
  C 367.70 439.28 368.42 440.72 369.12 441.63
  C 371.18 444.31 375.05 449.12 380.73 456.06
  C 384.32 460.46 387.57 463.86 390.47 466.27
  C 400.78 474.81 412.00 480.71 424.69 485.78
  C 434.30 489.62 440.93 492.00 444.58 492.93
  C 450.47 494.43 458.80 496.08 469.55 497.87
  C 473.10 498.46 482.96 499.30 499.12 500.38
  C 499.48 500.41 499.84 500.39 500.19 500.32
  L 502.74 499.86
  C 502.90 499.83 503.06 499.81 503.23 499.81
  C 514.55 499.82 525.98 498.72 537.52 496.51
  C 540.49 495.94 542.99 494.66 545.92 494.05
  C 550.72 493.04 555.49 491.40 560.24 489.12
  C 563.05 487.77 567.14 487.00 569.10 485.83
  C 581.63 478.35 592.94 469.50 603.02 459.27
  C 604.22 458.05 605.30 456.82 606.25 455.57
  C 606.41 455.36 606.27 455.05 606.01 455.03
  C 605.92 455.02 605.82 455.02 605.70 455.02"
/>
</g>
<path fill="#e2633d" d="
  M 219.00 120.82
  C 219.17 121.48 218.89 122.54 219.00 123.73
  C 224.21 178.44 229.12 229.41 233.73 276.66
  C 235.18 291.57 236.37 304.68 237.29 315.98
  C 238.82 334.92 240.89 349.19 242.40 368.36
  C 242.99 375.93 244.50 391.23 246.91 414.26
  C 250.88 452.12 254.28 486.90 257.11 518.60
  C 257.50 522.98 258.32 527.42 258.71 531.39
  C 262.09 566.32 265.04 596.85 267.57 623.00
  C 267.87 626.10 268.07 628.25 268.18 629.45
  C 269.75 646.76 271.48 664.16 273.37 681.63
  C 273.95 687.03 274.05 694.19 275.00 700.52
  C 275.75 705.49 276.24 709.60 276.47 712.83
  C 277.34 725.11 278.34 732.39 279.94 749.26
  C 280.24 752.43 279.89 753.63 277.65 756.04
  C 273.41 760.61 268.38 765.86 262.56 771.81
  C 245.63 789.13 235.21 799.84 231.31 803.95
  C 230.93 804.35 230.25 804.12 230.19 803.57
  C 228.38 785.94 227.41 776.50 227.27 775.24
  C 226.28 766.55 225.17 757.86 224.35 749.11
  C 223.36 738.56 222.55 730.67 221.94 725.43
  C 220.35 711.99 219.09 701.27 218.16 693.26
  C 217.60 688.47 217.47 685.81 216.75 679.00
  C 215.56 667.90 214.77 657.11 213.42 645.00
  C 211.52 627.95 210.57 616.82 208.28 599.74
  C 207.28 592.23 207.00 581.32 205.79 572.45
  C 204.66 564.22 203.94 556.47 203.61 549.18
  C 203.59 548.70 203.91 548.28 204.37 548.17
  C 209.78 546.94 215.18 545.16 220.57 542.83
  C 228.90 539.22 234.12 533.03 236.21 524.24
  C 236.53 522.89 236.61 519.85 236.45 515.11
  C 236.17 506.87 233.16 500.27 227.11 494.64
  C 221.73 489.64 214.84 488.30 207.74 488.72
  C 203.07 488.99 199.80 489.44 197.95 490.06
  C 197.67 490.16 197.37 489.96 197.33 489.66
  C 196.21 479.88 194.99 466.28 192.58 440.75
  C 191.70 431.46 190.20 417.65 188.07 399.31
  C 186.34 384.32 184.71 367.97 183.19 350.26
  C 182.75 345.17 181.67 338.79 181.23 334.24
  C 179.19 313.31 177.35 295.28 175.71 280.16
  C 175.02 273.70 174.82 266.97 174.03 260.50
  C 173.12 253.13 172.28 246.04 171.51 239.25
  C 171.42 238.40 171.06 234.84 170.43 228.59
  C 169.35 217.77 168.37 206.91 167.49 196.01
  C 167.24 192.94 166.87 189.27 166.38 184.99
  C 165.80 179.98 169.10 176.62 172.05 173.29
  C 179.62 164.76 185.55 157.85 189.83 152.57
  C 191.96 149.93 194.72 147.48 196.99 144.73
  C 198.77 142.56 199.67 141.47 199.69 141.45
  C 204.69 136.00 210.91 129.08 218.35 120.67
  C 218.55 120.44 218.93 120.53 219.00 120.82
  Z"
/>
<path fill="#4e1e1a" d="
  M 330.72 340.53
  C 330.39 340.07 330.65 339.42 331.21 339.31
  C 337.05 338.24 341.78 337.86 348.23 338.80
  C 354.07 339.65 359.21 340.68 363.65 341.89
  C 364.06 342.00 364.42 341.58 364.25 341.19
  C 360.23 331.91 356.67 321.75 353.56 310.72
  C 351.56 303.59 350.18 295.63 349.41 286.83
  C 348.35 274.68 347.99 264.81 348.91 254.48
  C 349.20 251.21 349.24 247.95 349.71 243.69
  C 350.98 232.36 353.36 221.31 356.83 210.54
  C 360.20 200.11 363.98 191.15 368.19 183.68
  C 372.77 175.55 378.93 168.06 386.68 161.22
  C 391.49 156.97 397.32 154.55 402.49 151.98
  C 411.17 147.66 421.79 147.19 430.75 149.77
  C 443.82 153.54 454.48 160.96 462.71 172.03
  C 467.20 178.06 470.31 182.89 472.05 186.52
  C 474.54 191.74 475.84 194.46 475.95 194.68
  C 477.45 197.77 478.59 200.53 479.36 202.96
  C 482.95 214.17 485.37 223.56 486.60 231.13
  C 486.79 232.34 487.46 238.79 488.61 250.50
  C 489.28 257.31 488.82 262.78 489.07 269.56
  C 489.19 272.91 489.01 277.19 488.52 282.42
  C 487.85 289.59 487.42 293.86 487.23 295.23
  C 483.94 320.10 474.65 342.23 459.36 361.60
  C 455.92 365.96 451.88 369.97 447.03 372.90
  C 439.05 377.72 430.36 380.82 420.96 382.20
  C 420.71 382.23 420.57 382.50 420.68 382.73
  C 424.12 389.83 427.75 396.42 428.15 402.44
  C 428.18 402.81 427.92 403.14 427.55 403.20
  C 427.19 403.26 426.84 403.04 426.74 402.68
  L 426.55 401.97
  C 426.45 401.62 426.28 401.29 426.06 401.01
  C 424.87 399.80 422.59 396.88 421.17 394.80
  C 413.30 383.30 403.94 373.25 393.09 364.66
  C 384.41 357.78 373.72 352.85 363.36 349.11
  C 354.17 345.79 340.13 343.49 333.17 341.87
  C 331.99 341.60 331.17 341.15 330.72 340.53
  Z"
/>
<path fill="#4e1e1a" d="
  M 596.09 392.73
  C 595.86 392.93 595.52 392.67 595.65 392.39
  L 602.78 376.78
  C 603.03 376.24 602.74 375.60 602.16 375.43
  C 590.78 372.14 580.98 366.16 572.75 357.49
  C 566.13 350.51 558.89 339.74 554.91 329.80
  C 553.09 325.25 550.85 320.74 549.35 316.22
  C 543.71 299.24 540.88 282.25 540.87 265.25
  C 540.86 258.40 541.28 250.71 542.13 242.18
  C 543.34 229.89 546.92 216.82 549.80 207.05
  C 549.82 206.98 551.22 203.47 554.00 196.50
  C 558.72 184.68 565.15 174.53 573.30 166.05
  C 581.45 157.55 591.96 151.63 602.91 149.29
  C 612.47 147.25 621.99 148.70 631.46 153.64
  C 649.52 163.07 660.08 178.64 667.83 197.43
  C 672.50 208.72 675.74 220.54 677.56 232.88
  C 678.36 238.28 679.26 244.51 679.62 250.70
  C 680.45 265.18 679.99 279.40 678.24 293.35
  C 677.28 300.97 676.00 307.49 674.40 312.92
  C 672.23 320.33 670.37 326.58 668.82 331.66
  C 668.77 331.82 668.91 331.97 669.07 331.94
  C 678.37 330.19 687.82 330.49 697.43 332.82
  C 697.70 332.88 697.94 333.07 698.13 333.38
  C 698.31 333.67 698.14 334.06 697.80 334.11
  C 690.47 335.26 682.47 336.82 673.80 338.78
  C 666.90 340.34 660.75 342.27 655.34 344.58
  C 643.85 349.47 634.12 354.89 625.07 362.94
  C 619.68 367.73 615.79 371.48 613.42 374.17
  C 605.07 383.67 601.82 387.92 596.09 392.73
  Z"
/>
<path fill="#f6f2e1" d="
  M 416.40 374.45
  C 415.65 374.39 414.96 374.04 414.46 373.49
  C 403.53 361.58 390.93 352.12 376.65 345.10
  C 376.25 344.90 375.90 344.62 375.62 344.26
  C 372.77 340.63 370.32 336.20 368.28 330.99
  C 363.83 319.61 360.51 307.94 358.32 295.99
  C 356.30 284.92 356.08 271.78 356.22 260.33
  C 356.35 249.50 357.89 237.51 360.84 224.36
  C 362.39 217.43 364.23 211.43 366.36 206.38
  C 370.38 196.84 374.87 188.16 379.82 180.34
  C 380.47 179.32 382.97 176.40 387.32 171.58
  C 395.14 162.94 405.70 157.10 417.61 156.27
  C 424.41 155.80 430.91 157.12 437.11 160.24
  C 443.91 163.66 449.65 168.24 454.32 173.99
  C 461.10 182.33 466.54 191.54 470.64 201.62
  C 472.40 205.94 474.55 211.59 475.68 216.32
  C 478.77 229.23 480.66 240.63 481.35 250.52
  C 482.03 260.23 481.82 272.30 480.73 286.75
  C 480.45 290.46 480.09 293.20 479.66 294.99
  C 478.75 298.74 478.69 302.06 477.82 305.91
  C 473.63 324.55 466.06 342.28 453.35 356.83
  C 444.38 367.10 430.50 375.67 416.40 374.45
  Z"
/>
<path fill="#f6f2e1" d="
  M 607.61 367.35
  C 605.51 368.66 599.87 366.28 595.14 364.78
  C 594.53 364.59 593.94 364.33 593.40 364.01
  C 579.35 355.84 569.35 343.64 562.51 328.78
  C 557.32 317.51 553.60 306.06 551.35 294.42
  C 549.12 282.89 548.14 270.45 548.43 257.12
  C 548.50 253.44 549.20 246.73 550.53 237.00
  C 553.29 216.73 560.17 198.11 571.16 181.12
  C 573.85 176.96 577.17 173.30 580.35 170.11
  C 595.22 155.22 615.40 151.51 633.62 163.08
  C 637.03 165.25 640.58 168.47 644.26 172.73
  C 650.23 179.65 655.12 187.28 658.93 195.62
  C 660.52 199.10 662.68 204.51 665.42 211.86
  C 666.27 214.12 666.81 216.00 667.05 217.51
  C 667.43 219.87 668.38 222.28 668.84 225.19
  C 670.80 237.70 672.67 249.78 672.56 261.75
  C 672.44 274.44 672.01 283.71 671.26 289.57
  C 670.92 292.26 670.30 296.32 669.39 301.73
  C 668.19 308.91 665.39 317.92 663.67 322.94
  C 662.94 325.08 661.49 328.49 659.31 333.18
  C 659.06 333.71 658.65 334.15 658.13 334.44
  C 655.87 335.69 653.82 336.62 651.99 337.23
  C 646.16 339.17 640.03 342.13 633.59 346.10
  C 625.51 351.09 618.28 358.82 611.60 364.59
  C 610.83 365.26 609.50 366.18 607.61 367.35
  Z"
/>
<path fill="#4e1e1a" d="
  M 601.68 272.80
  C 602.01 272.34 601.94 271.70 601.51 271.33
  C 600.46 270.42 599.18 269.66 597.69 269.06
  C 589.25 265.71 581.96 263.35 575.34 259.09
  C 574.82 258.76 574.49 258.20 574.43 257.58
  C 573.88 251.12 575.29 246.26 576.88 237.08
  C 577.48 233.62 578.91 229.24 581.18 223.94
  C 584.17 216.97 591.51 207.65 599.36 205.29
  C 606.93 203.01 616.14 207.26 620.61 213.48
  C 628.23 224.11 631.52 234.07 634.30 246.46
  C 634.96 249.40 634.96 252.03 635.69 255.16
  C 636.32 257.87 636.71 261.02 636.86 264.63
  C 637.27 274.52 636.79 284.73 635.40 295.24
  C 634.62 301.18 633.10 307.93 630.85 315.49
  C 629.90 318.68 628.82 321.43 627.61 323.75
  C 625.22 328.32 623.77 330.91 623.28 331.53
  C 621.27 334.04 618.55 336.74 615.11 339.62
  C 611.76 342.43 607.72 343.77 603.00 343.66
  C 599.65 343.58 598.18 342.72 595.27 340.87
  C 589.32 337.08 585.33 333.02 582.26 326.30
  C 577.49 315.85 574.47 305.07 573.21 293.96
  C 573.17 293.63 573.30 293.31 573.56 293.10
  C 582.46 285.85 591.56 279.36 600.87 273.63
  C 601.11 273.48 601.38 273.21 601.68 272.80
  Z"
/>
<path fill="#4e1e1a" d="
  M 419.01 278.66
  C 419.44 278.26 419.31 277.54 418.76 277.33
  L 397.03 268.89
  C 396.87 268.83 396.72 268.75 396.57 268.66
  L 388.48 263.62
  C 388.28 263.49 388.15 263.27 388.16 263.03
  C 388.27 257.20 388.84 251.57 389.87 246.13
  C 390.53 242.64 392.24 237.22 394.99 229.88
  C 399.50 217.85 412.70 201.72 427.31 208.28
  C 429.38 209.21 431.98 211.00 435.09 213.63
  C 440.43 218.15 442.62 223.60 445.86 230.24
  C 446.70 231.97 447.67 234.69 448.78 238.39
  C 450.19 243.12 451.18 246.55 451.77 248.67
  C 453.08 253.48 453.58 257.76 454.36 262.63
  C 455.48 269.63 455.88 276.25 455.57 282.50
  C 455.46 284.72 455.37 286.88 455.30 288.99
  C 454.83 302.60 452.16 315.78 447.29 328.53
  C 445.16 334.08 441.84 339.35 437.32 344.32
  C 435.56 346.25 434.03 347.55 432.73 348.21
  C 427.03 351.10 421.32 353.54 415.10 351.23
  C 406.64 348.09 399.15 339.09 395.75 330.82
  C 392.50 322.90 390.07 314.24 388.48 304.84
  C 388.10 302.61 387.30 300.93 389.48 299.21
  C 396.01 294.09 402.68 288.25 411.39 282.79
  C 411.75 282.57 412.13 282.38 412.52 282.23
  C 415.48 281.12 417.64 279.93 419.01 278.66
  Z"
/>
<path fill="#5f241a" d="
  M 511.36 304.47
  C 511.44 304.29 511.71 304.34 511.72 304.54
  C 511.96 309.00 511.78 312.17 512.41 316.47
  C 512.80 319.14 513.25 323.69 513.75 330.13
  C 513.81 330.92 513.95 331.71 514.16 332.47
  C 515.57 337.54 516.06 341.92 518.51 345.57
  C 518.76 345.93 519.21 346.06 519.61 345.90
  C 525.38 343.49 531.43 342.35 537.74 342.46
  C 542.29 342.55 546.18 344.11 549.41 347.16
  C 557.80 355.08 561.13 365.13 559.41 377.30
  C 557.45 391.22 548.84 403.69 535.21 408.07
  C 528.76 410.14 522.02 408.64 515.50 406.25
  C 513.57 405.54 512.09 404.73 511.06 403.81
  C 510.83 403.60 510.83 403.23 511.06 403.02
  C 512.36 401.89 513.26 401.35 513.77 401.40
  C 520.69 402.04 527.03 402.21 533.66 400.10
  C 536.50 399.20 539.26 397.52 541.95 395.07
  C 548.88 388.75 552.14 380.88 551.73 371.46
  C 551.43 364.59 550.36 359.40 545.57 354.68
  C 543.88 353.01 542.51 351.99 540.20 351.68
  C 533.82 350.82 527.16 351.61 521.28 354.58
  C 518.56 355.95 515.60 357.62 512.40 359.58
  C 511.42 360.17 510.17 359.54 510.06 358.40
  C 509.57 353.19 508.69 346.32 507.42 337.81
  C 506.99 334.94 506.87 329.83 507.08 322.48
  C 507.25 316.31 508.68 310.31 511.36 304.47
  Z"
/>
<path fill="#e9957e" d="
  M 691.99 352.82
  C 692.34 352.76 694.97 352.79 699.88 352.90
  C 702.78 352.97 705.35 353.41 707.58 354.23
  C 712.43 356.02 715.93 357.59 718.07 358.95
  C 724.30 362.91 727.46 368.48 727.55 375.66
  C 727.59 378.89 726.48 382.15 724.21 385.46
  C 720.40 391.03 715.58 394.80 709.76 396.79
  C 699.19 400.40 688.55 401.03 677.84 398.68
  C 676.83 398.46 674.41 397.36 670.58 395.39
  C 664.53 392.27 661.76 387.78 660.39 381.44
  C 657.97 370.34 666.43 361.61 675.84 357.63
  C 681.30 355.32 686.68 353.72 691.99 352.82
  Z"
/>
<path fill="#e9957e" d="
  M 299.82 357.62
  C 305.14 355.34 312.30 355.14 318.25 355.50
  C 322.65 355.76 326.29 357.26 330.65 359.14
  C 335.84 361.38 340.31 364.90 344.08 369.71
  C 353.20 381.34 348.51 389.94 338.64 398.36
  C 338.35 398.60 338.02 398.79 337.66 398.92
  C 331.19 401.15 327.44 402.38 326.41 402.59
  C 315.21 404.91 299.51 404.17 290.70 396.27
  C 287.77 393.64 285.59 391.57 284.15 390.04
  C 283.82 389.69 283.55 389.31 283.33 388.90
  C 281.22 384.93 280.45 381.27 281.02 377.94
  C 281.49 375.16 282.51 372.32 284.10 369.43
  C 286.86 364.38 294.67 359.82 299.82 357.62
  Z"
/>
<path fill="#5f241a" d="
  M 663.32 426.74
  L 661.79 420.29
  C 661.72 419.98 661.49 419.74 661.18 419.65
  C 658.02 418.74 656.07 420.66 654.74 423.08
  C 654.66 423.22 654.56 423.34 654.43 423.43
  L 632.43 439.44
  C 631.62 440.04 630.71 440.49 629.74 440.78
  C 620.72 443.50 612.71 448.25 605.70 455.02
  C 586.63 464.49 566.21 470.37 544.42 472.67
  C 543.49 472.76 542.20 473.31 541.02 473.40
  C 536.57 473.74 529.73 474.09 520.51 474.45
  C 501.99 475.16 483.75 474.20 465.79 471.55
  C 454.94 469.96 444.75 467.80 435.22 465.07
  C 425.09 462.17 415.18 458.94 405.47 455.38
  C 393.42 450.96 379.58 443.70 366.97 437.33
  C 364.15 435.83 361.18 434.52 358.06 433.40
  C 349.40 430.31 351.20 439.78 352.65 444.03
  C 357.60 458.55 364.21 472.24 373.88 485.65
  C 381.75 496.58 388.14 504.81 393.03 510.32
  C 400.85 519.13 410.89 525.59 423.14 529.70
  C 421.92 530.41 421.69 531.12 422.45 531.83
  C 427.47 536.49 433.77 540.62 441.36 544.22
  C 449.38 548.03 454.72 550.45 457.38 551.48
  C 466.31 554.97 474.60 557.14 482.25 557.99
  C 491.86 559.06 501.72 559.22 511.84 558.46
  C 520.29 557.82 528.26 556.23 535.74 553.70
  C 545.84 550.28 555.57 546.23 564.43 540.80
  C 566.46 539.55 568.50 538.35 570.54 537.18
  L 583.11 538.98
  C 576.91 543.41 570.49 547.45 563.86 551.08
  C 542.50 562.75 516.96 567.91 492.84 567.10
  C 481.80 566.73 470.72 564.68 459.60 560.95
  C 448.86 557.36 438.62 552.59 428.89 546.62
  C 420.11 541.23 411.00 535.08 402.99 527.67
  C 394.78 520.08 387.55 512.34 381.30 504.45
  C 374.33 495.65 366.00 484.20 360.13 472.64
  C 352.91 458.43 349.12 450.88 348.75 449.98
  C 347.65 447.31 345.80 442.67 343.21 436.07
  C 342.68 434.72 342.01 433.50 341.20 432.42
  C 341.02 432.18 340.70 432.10 340.42 432.22
  C 335.36 434.43 332.42 435.65 331.60 435.89
  C 321.94 438.70 310.82 438.70 301.45 434.22
  C 301.31 434.16 301.24 434.00 301.30 433.86
  L 301.35 433.75
  C 301.42 433.57 301.62 433.49 301.80 433.56
  C 302.88 434.01 303.98 433.58 304.39 432.39
  C 304.64 431.66 305.17 431.46 305.97 431.77
  C 306.36 431.92 307.05 431.95 308.03 431.86
  C 314.48 431.27 322.61 430.80 328.83 428.13
  C 334.94 425.51 340.58 422.29 345.74 418.46
  C 347.30 417.30 348.72 415.72 349.99 413.71
  C 353.56 408.09 356.32 401.27 358.25 393.26
  C 358.40 392.63 358.79 392.15 359.41 391.82
  C 359.87 391.58 360.43 391.81 360.59 392.30
  C 361.58 395.52 362.16 398.81 361.63 402.28
  C 360.81 407.59 359.07 412.60 356.41 417.32
  C 355.90 418.23 356.08 419.38 356.86 420.08
  C 363.31 425.87 370.89 429.59 379.04 434.26
  C 389.24 440.10 398.44 444.46 406.65 447.33
  C 412.98 449.54 417.52 451.13 420.25 452.10
  C 437.83 458.33 456.07 462.56 474.54 465.15
  C 476.70 465.45 483.63 465.93 495.34 466.60
  C 503.55 467.07 510.50 467.17 516.18 466.91
  C 530.10 466.28 538.71 465.80 542.00 465.49
  C 552.19 464.50 563.16 462.29 574.91 458.86
  C 579.31 457.57 586.69 455.49 592.21 452.89
  C 596.67 450.78 602.08 449.11 607.47 446.47
  C 621.98 439.38 635.33 431.73 647.50 423.52
  C 649.97 421.86 652.10 420.13 653.91 418.32
  C 654.35 417.87 654.49 417.20 654.25 416.62
  C 651.45 409.83 647.38 399.43 650.90 392.78
  C 651.09 392.42 651.62 392.49 651.71 392.88
  C 653.05 398.64 655.61 404.30 659.39 409.87
  C 665.61 419.02 676.90 424.88 686.60 428.96
  C 687.48 429.33 688.58 429.60 689.89 429.76
  C 690.46 429.83 690.88 430.30 690.88 430.87
  L 690.88 431.27
  C 690.88 431.70 690.45 431.99 690.05 431.83
  C 688.59 431.24 687.21 432.73 685.75 432.80
  C 681.70 433.01 678.49 432.61 676.13 431.61
  C 671.95 429.84 667.68 428.22 663.32 426.74
  Z"
/>
<path fill="#ca7361" d="
  M 513.91 399.45
  C 513.92 399.71 513.75 400.00 513.40 400.31
  C 513.17 400.53 512.96 400.48 512.77 400.17
  C 512.60 399.89 512.58 399.60 512.72 399.29
  C 513.00 398.69 513.90 398.81 513.91 399.45
  Z"
/>
<path fill="#4e1e1a" d="
  M 663.32 426.74
  C 660.70 433.08 657.62 440.26 652.07 453.14
  C 648.47 461.48 645.00 468.43 641.66 473.99
  C 634.38 486.10 627.02 496.21 617.76 507.33
  C 613.58 512.34 609.96 516.36 606.91 519.38
  C 599.59 526.63 591.66 533.16 583.11 538.98
  L 570.54 537.18
  C 562.11 532.13 553.92 528.26 545.97 525.56
  C 529.51 519.96 513.50 521.63 496.64 526.01
  C 496.30 526.10 496.26 526.56 496.58 526.71
  C 500.71 528.62 504.03 530.47 507.58 533.88
  C 511.23 537.39 513.40 539.38 514.11 539.83
  C 514.48 540.07 514.47 540.63 514.08 540.85
  L 513.06 541.44
  C 512.42 541.81 511.64 541.78 511.03 541.38
  C 498.57 533.08 485.54 527.31 471.95 524.07
  C 464.92 522.39 457.00 521.83 448.20 522.39
  C 442.60 522.75 434.56 524.88 430.17 525.88
  C 428.22 526.33 425.88 527.60 423.14 529.70
  C 410.89 525.59 400.85 519.13 393.03 510.32
  C 388.14 504.81 381.75 496.58 373.88 485.65
  C 364.21 472.24 357.60 458.55 352.65 444.03
  C 351.20 439.78 349.40 430.31 358.06 433.40
  C 361.18 434.52 364.15 435.83 366.97 437.33
  C 367.70 439.28 368.42 440.72 369.12 441.63
  C 371.18 444.31 375.05 449.12 380.73 456.06
  C 384.32 460.46 387.57 463.86 390.47 466.27
  C 400.78 474.81 412.00 480.71 424.69 485.78
  C 434.30 489.62 440.93 492.00 444.58 492.93
  C 450.47 494.43 458.80 496.08 469.55 497.87
  C 473.10 498.46 482.96 499.30 499.12 500.38
  C 499.48 500.41 499.84 500.39 500.19 500.32
  L 502.74 499.86
  C 502.90 499.83 503.06 499.81 503.23 499.81
  C 514.55 499.82 525.98 498.72 537.52 496.51
  C 540.49 495.94 542.99 494.66 545.92 494.05
  C 550.72 493.04 555.49 491.40 560.24 489.12
  C 563.05 487.77 567.14 487.00 569.10 485.83
  C 581.63 478.35 592.94 469.50 603.02 459.27
  C 604.22 458.05 605.30 456.82 606.25 455.57
  C 606.41 455.36 606.27 455.05 606.01 455.03
  C 605.92 455.02 605.82 455.02 605.70 455.02
  C 612.71 448.25 620.72 443.50 629.74 440.78
  C 630.71 440.49 631.62 440.04 632.43 439.44
  L 654.43 423.43
  C 654.56 423.34 654.66 423.22 654.74 423.08
  C 656.07 420.66 658.02 418.74 661.18 419.65
  C 661.49 419.74 661.72 419.98 661.79 420.29
  L 663.32 426.74
  Z"
/>
<path fill="#f6f2e1" d="
  M 605.70 455.02
  C 605.82 455.02 605.92 455.02 606.01 455.03
  C 606.27 455.05 606.41 455.36 606.25 455.57
  C 605.30 456.82 604.22 458.05 603.02 459.27
  C 592.94 469.50 581.63 478.35 569.10 485.83
  C 567.14 487.00 563.05 487.77 560.24 489.12
  C 555.49 491.40 550.72 493.04 545.92 494.05
  C 542.99 494.66 540.49 495.94 537.52 496.51
  C 525.98 498.72 514.55 499.82 503.23 499.81
  C 503.06 499.81 502.90 499.83 502.74 499.86
  L 500.19 500.32
  C 499.84 500.39 499.48 500.41 499.12 500.38
  C 482.96 499.30 473.10 498.46 469.55 497.87
  C 458.80 496.08 450.47 494.43 444.58 492.93
  C 440.93 492.00 434.30 489.62 424.69 485.78
  C 412.00 480.71 400.78 474.81 390.47 466.27
  C 387.57 463.86 384.32 460.46 380.73 456.06
  C 375.05 449.12 371.18 444.31 369.12 441.63
  C 368.42 440.72 367.70 439.28 366.97 437.33
  C 379.58 443.70 393.42 450.96 405.47 455.38
  C 415.18 458.94 425.09 462.17 435.22 465.07
  C 444.75 467.80 454.94 469.96 465.79 471.55
  C 483.75 474.20 501.99 475.16 520.51 474.45
  C 529.73 474.09 536.57 473.74 541.02 473.40
  C 542.20 473.31 543.49 472.76 544.42 472.67
  C 566.21 470.37 586.63 464.49 605.70 455.02
  Z"
/>
<path fill="#4e1e1a" d="
  M 799.18 465.96
  L 799.22 469.07
  C 799.24 470.13 800.02 471.02 801.08 471.18
  C 809.51 472.45 814.99 474.22 825.46 477.57
  C 829.83 478.97 833.92 480.58 837.73 482.40
  C 863.59 494.73 885.86 512.51 902.56 535.72
  C 914.07 551.72 923.08 568.02 928.45 586.04
  C 930.17 591.82 932.00 599.48 933.95 609.01
  C 934.48 611.65 934.77 614.14 934.82 616.47
  C 934.88 619.79 935.64 623.00 935.74 626.49
  C 935.87 631.42 936.01 636.48 936.15 641.66
  C 933.71 648.92 930.39 655.99 926.20 662.88
  C 927.63 651.09 928.21 639.21 927.96 627.25
  C 927.89 623.90 927.70 621.11 927.37 618.89
  C 926.35 611.96 925.72 604.92 924.08 598.19
  C 918.63 575.86 908.71 555.44 894.34 536.93
  C 891.57 533.35 887.84 529.16 883.16 524.37
  C 877.67 518.74 873.56 514.77 870.83 512.45
  C 859.18 502.56 846.13 494.35 831.67 487.82
  C 821.90 483.40 811.35 480.25 800.02 478.36
  C 799.28 478.23 798.58 478.75 798.49 479.50
  C 797.02 491.05 794.90 503.02 792.15 515.43
  C 792.09 515.72 792.26 516.00 792.54 516.07
  C 809.19 520.38 824.53 527.42 838.55 537.21
  C 843.23 540.47 847.21 543.65 850.50 546.74
  C 862.72 558.24 873.73 572.47 880.30 588.18
  C 883.93 596.88 886.36 604.73 887.60 611.74
  C 889.49 622.43 889.92 634.35 888.91 647.52
  C 887.52 649.81 886.58 652.33 886.07 655.09
  C 886.04 655.27 885.84 655.36 885.69 655.27
  C 885.56 655.19 885.51 655.05 885.54 654.86
  C 885.58 654.63 885.50 654.40 885.31 654.16
  C 882.25 650.55 878.73 647.47 875.98 643.03
  L 879.56 641.60
  C 880.59 641.19 881.29 640.22 881.35 639.10
  C 881.93 627.95 880.92 617.22 878.32 606.91
  C 877.33 602.98 876.26 599.63 875.09 596.85
  C 873.08 592.03 871.79 587.81 869.68 583.86
  C 865.53 576.09 861.46 569.73 857.49 564.79
  C 846.17 550.73 831.88 539.82 814.63 532.06
  C 812.46 531.08 810.98 530.47 810.20 530.22
  C 806.51 529.07 803.39 527.27 800.07 526.37
  C 796.49 525.39 793.91 524.42 790.79 524.68
  C 790.12 524.73 789.56 525.23 789.43 525.89
  L 787.42 536.19
  L 788.19 517.37
  C 788.21 516.97 788.25 516.57 788.32 516.18
  C 789.29 510.83 790.11 504.58 790.80 497.43
  C 791.28 492.38 793.63 486.34 795.17 479.72
  C 796.25 475.06 797.59 470.47 799.18 465.96
  Z"
/>
<path fill="#fffffe" d="
  M 926.20 662.88
  C 925.29 666.67 925.35 669.75 921.20 671.34
  C 912.36 674.71 903.28 674.43 893.96 670.48
  C 890.83 669.15 888.76 666.81 887.76 663.45
  C 887.69 663.22 887.67 662.98 887.69 662.74
  L 888.91 647.52
  C 889.92 634.35 889.49 622.43 887.60 611.74
  C 886.36 604.73 883.93 596.88 880.30 588.18
  C 873.73 572.47 862.72 558.24 850.50 546.74
  C 847.21 543.65 843.23 540.47 838.55 537.21
  C 824.53 527.42 809.19 520.38 792.54 516.07
  C 792.26 516.00 792.09 515.72 792.15 515.43
  C 794.90 503.02 797.02 491.05 798.49 479.50
  C 798.58 478.75 799.28 478.23 800.02 478.36
  C 811.35 480.25 821.90 483.40 831.67 487.82
  C 846.13 494.35 859.18 502.56 870.83 512.45
  C 873.56 514.77 877.67 518.74 883.16 524.37
  C 887.84 529.16 891.57 533.35 894.34 536.93
  C 908.71 555.44 918.63 575.86 924.08 598.19
  C 925.72 604.92 926.35 611.96 927.37 618.89
  C 927.70 621.11 927.89 623.90 927.96 627.25
  C 928.21 639.21 927.63 651.09 926.20 662.88
  Z"
/>
<path fill="#3d2d2a" d="
  M 189.57 493.33
  C 191.97 494.87 193.41 496.95 193.88 499.56
  C 186.45 501.62 179.26 504.18 172.31 507.25
  C 164.61 510.65 156.63 514.40 149.43 519.17
  C 137.28 527.24 127.00 535.80 118.61 544.87
  C 112.29 551.70 107.28 557.68 103.57 562.81
  C 92.70 577.86 82.99 597.19 78.29 616.13
  C 75.58 627.10 73.93 636.39 73.34 643.99
  C 72.54 654.38 73.11 666.13 75.04 679.24
  C 75.46 682.10 76.76 686.51 77.51 689.09
  C 78.08 691.01 78.76 692.19 79.56 692.62
  C 90.35 698.46 100.81 697.91 110.95 690.98
  C 114.27 688.71 115.44 685.65 114.46 681.80
  C 113.79 679.19 113.37 676.67 113.22 674.25
  C 112.73 666.75 112.48 659.92 112.46 653.75
  C 112.41 637.16 115.57 621.94 121.92 608.11
  C 125.73 599.80 128.83 594.08 131.20 590.94
  C 136.61 583.77 140.09 579.33 141.62 577.62
  C 148.64 569.75 155.72 563.33 162.86 558.37
  C 168.51 554.44 174.47 550.78 180.76 547.41
  C 184.38 545.47 188.01 544.52 191.58 543.11
  C 193.37 542.40 196.17 541.60 199.97 540.70
  C 204.23 539.69 208.48 538.62 212.71 537.50
  C 209.39 540.81 204.66 541.45 200.42 542.66
  C 196.76 543.71 195.75 547.68 196.18 551.47
  C 195.68 549.46 192.90 550.05 191.47 550.70
  C 186.87 552.79 183.38 553.80 179.17 556.26
  C 169.20 562.07 160.74 568.49 153.78 575.52
  C 150.04 579.30 145.57 584.50 140.38 591.11
  C 137.72 594.50 134.32 600.05 130.17 607.74
  C 129.11 609.72 127.87 612.85 126.44 617.12
  C 126.07 618.25 124.97 621.43 123.14 626.68
  C 122.68 628.00 121.97 631.22 121.01 636.35
  C 119.62 643.79 119.97 653.18 120.19 660.04
  C 120.21 660.71 120.67 661.29 121.32 661.47
  C 127.20 663.11 132.73 665.90 137.91 669.84
  C 144.27 674.66 147.70 683.06 148.80 690.79
  C 149.29 694.24 148.13 698.14 148.28 701.70
  C 148.32 702.52 148.76 703.27 149.47 703.69
  C 161.72 711.06 171.87 720.35 179.90 731.56
  C 190.82 746.80 197.90 768.38 188.07 785.96
  C 185.13 791.22 176.50 794.53 170.93 795.24
  C 170.31 795.31 169.85 795.84 169.87 796.46
  C 169.93 799.61 170.19 803.13 170.65 807.00
  C 172.11 819.41 168.34 829.77 159.33 838.08
  C 157.55 839.73 153.73 842.06 150.79 843.01
  C 146.31 844.44 143.13 845.28 141.25 845.53
  C 133.85 846.50 125.25 843.55 118.20 840.83
  C 117.91 840.72 117.57 840.76 117.31 840.94
  C 113.40 843.72 111.35 845.18 111.16 845.31
  C 100.53 852.78 89.19 853.85 77.13 848.52
  C 69.46 845.14 63.34 840.22 58.77 833.77
  C 58.29 833.10 57.57 832.64 56.76 832.47
  C 56.03 832.32 53.77 831.65 50.00 830.45
  C 40.31 827.39 33.00 821.13 28.96 811.78
  C 26.07 805.10 24.37 798.46 23.88 791.87
  C 23.49 786.72 23.15 782.58 22.84 779.45
  C 22.54 776.46 22.56 773.49 22.89 770.56
  C 23.68 763.56 24.06 757.50 26.18 750.92
  C 27.86 745.71 28.63 741.22 30.72 736.92
  C 33.28 731.65 35.52 727.27 37.45 723.76
  C 39.35 720.31 41.58 718.11 44.70 714.46
  C 46.65 712.19 47.36 709.68 46.85 706.95
  C 45.17 698.02 44.39 688.70 49.01 680.93
  C 51.75 676.31 56.14 672.19 62.19 668.58
  C 62.98 668.11 63.82 667.46 64.73 666.63
  C 64.98 666.39 65.13 666.06 65.12 665.72
  C 64.96 659.49 65.38 650.99 66.37 640.23
  C 67.63 626.60 70.18 613.81 75.03 601.58
  C 77.41 595.60 79.40 589.61 82.17 583.84
  C 90.83 565.78 102.96 549.26 118.56 534.29
  C 128.18 525.05 137.94 517.48 147.83 511.57
  C 154.32 507.69 160.78 504.66 169.24 500.50
  C 172.29 499.00 179.06 496.61 189.57 493.33
  Z"
/>
<path fill="#fffffe" d="
  M 212.71 537.50
  C 208.48 538.62 204.23 539.69 199.97 540.70
  C 196.17 541.60 193.37 542.40 191.58 543.11
  C 188.01 544.52 184.38 545.47 180.76 547.41
  C 174.47 550.78 168.51 554.44 162.86 558.37
  C 155.72 563.33 148.64 569.75 141.62 577.62
  C 140.09 579.33 136.61 583.77 131.20 590.94
  C 128.83 594.08 125.73 599.80 121.92 608.11
  C 115.57 621.94 112.41 637.16 112.46 653.75
  C 112.48 659.92 112.73 666.75 113.22 674.25
  C 113.37 676.67 113.79 679.19 114.46 681.80
  C 115.44 685.65 114.27 688.71 110.95 690.98
  C 100.81 697.91 90.35 698.46 79.56 692.62
  C 78.76 692.19 78.08 691.01 77.51 689.09
  C 76.76 686.51 75.46 682.10 75.04 679.24
  C 73.11 666.13 72.54 654.38 73.34 643.99
  C 73.93 636.39 75.58 627.10 78.29 616.13
  C 82.99 597.19 92.70 577.86 103.57 562.81
  C 107.28 557.68 112.29 551.70 118.61 544.87
  C 127.00 535.80 137.28 527.24 149.43 519.17
  C 156.63 514.40 164.61 510.65 172.31 507.25
  C 179.26 504.18 186.45 501.62 193.88 499.56
  C 198.08 498.50 202.41 497.67 206.87 497.08
  C 210.79 496.55 218.51 497.18 221.50 500.51
  C 225.39 504.83 227.42 509.38 227.57 514.16
  C 227.74 519.33 227.40 523.33 226.56 526.14
  C 224.82 532.04 218.45 535.83 212.71 537.50
  Z"
/>
<path fill="#ca7361" d="
  M 570.54 537.18
  C 568.50 538.35 566.46 539.55 564.43 540.80
  C 555.57 546.23 545.84 550.28 535.74 553.70
  C 528.26 556.23 520.29 557.82 511.84 558.46
  C 501.72 559.22 491.86 559.06 482.25 557.99
  C 474.60 557.14 466.31 554.97 457.38 551.48
  C 454.72 550.45 449.38 548.03 441.36 544.22
  C 433.77 540.62 427.47 536.49 422.45 531.83
  C 421.69 531.12 421.92 530.41 423.14 529.70
  C 425.88 527.60 428.22 526.33 430.17 525.88
  C 434.56 524.88 442.60 522.75 448.20 522.39
  C 457.00 521.83 464.92 522.39 471.95 524.07
  C 485.54 527.31 498.57 533.08 511.03 541.38
  C 511.64 541.78 512.42 541.81 513.06 541.44
  L 514.08 540.85
  C 514.47 540.63 514.48 540.07 514.11 539.83
  C 513.40 539.38 511.23 537.39 507.58 533.88
  C 504.03 530.47 500.71 528.62 496.58 526.71
  C 496.26 526.56 496.30 526.10 496.64 526.01
  C 513.50 521.63 529.51 519.96 545.97 525.56
  C 553.92 528.26 562.11 532.13 570.54 537.18
  Z"
/>
<path fill="#5f241a" d="
  M 505.40 603.61
  C 485.64 604.05 465.09 597.83 449.80 585.02
  C 447.26 582.89 445.40 580.88 444.21 578.99
  C 444.04 578.72 443.97 578.54 444.00 578.45
  C 444.15 577.99 444.68 577.77 445.11 577.99
  C 454.73 582.91 464.84 587.06 475.44 590.44
  C 484.85 593.45 495.39 594.19 505.19 593.98
  C 514.99 593.76 525.49 592.55 534.76 589.13
  C 545.20 585.28 555.11 580.69 564.51 575.35
  C 564.93 575.11 565.46 575.30 565.63 575.76
  C 565.67 575.85 565.61 576.03 565.45 576.31
  C 564.35 578.25 562.58 580.34 560.14 582.58
  C 545.42 596.05 525.17 603.18 505.40 603.61
  Z"
/>
<ellipse fill="#ca7361" cx="0.00" cy="0.00" transform="translate(764.51,585.42) rotate(-64.0)" rx="0.96" ry="0.20"/>
<path fill="#e2633d" d="
  M 763.68 586.87
  C 763.75 586.72 763.92 586.65 764.07 586.72
  L 764.12 586.75
  C 764.25 586.80 764.30 586.95 764.24 587.08
  C 763.93 587.73 761.39 593.20 756.64 603.47
  C 755.87 605.11 755.39 606.16 755.18 606.63
  C 747.97 622.79 740.00 637.10 731.09 652.27
  C 727.51 658.35 722.19 665.95 718.93 670.69
  C 714.94 676.52 710.01 682.84 704.16 689.65
  C 691.38 704.53 676.64 719.93 660.98 732.37
  C 648.97 741.92 641.36 747.85 638.15 750.14
  C 636.22 751.52 630.08 755.42 619.73 761.84
  C 609.20 768.36 603.40 771.00 590.53 777.46
  C 589.79 777.83 588.91 777.72 588.29 777.17
  C 579.37 769.21 572.29 761.53 560.16 761.08
  C 555.99 760.92 552.29 761.46 549.08 762.71
  C 545.31 764.17 541.95 765.85 538.99 767.74
  C 529.98 773.50 526.43 784.86 527.69 795.09
  C 527.73 795.37 527.80 795.64 527.90 795.91
  L 529.16 799.08
  C 529.33 799.49 529.10 799.95 528.68 800.07
  C 518.93 802.88 509.10 805.23 499.19 807.13
  C 485.05 809.84 477.10 811.47 470.42 812.12
  C 469.98 812.16 469.63 811.77 469.71 811.34
  C 471.67 801.08 468.91 792.62 461.42 785.97
  C 454.39 779.73 445.96 777.12 436.13 778.13
  C 423.53 779.43 416.18 789.25 409.13 798.87
  C 406.23 802.82 403.98 806.31 402.38 809.35
  C 400.30 813.31 398.81 816.11 397.92 817.76
  C 397.76 818.06 397.51 818.31 397.22 818.48
  C 396.77 818.75 395.69 818.90 394.00 818.93
  C 363.84 819.58 331.42 818.93 296.75 816.98
  C 283.75 816.25 272.67 814.59 261.27 814.07
  C 253.68 813.73 248.23 812.81 239.27 811.46
  C 238.53 811.35 237.94 811.19 237.49 810.99
  C 237.12 810.82 237.03 810.35 237.31 810.06
  L 286.29 758.84
  C 286.72 758.40 287.33 758.19 287.94 758.27
  C 299.19 759.84 306.52 760.78 309.93 761.10
  C 327.84 762.79 336.89 763.64 337.09 763.66
  C 345.54 764.51 354.62 765.16 364.31 765.60
  C 382.56 766.42 399.21 766.64 414.26 766.25
  C 435.27 765.71 457.03 764.13 479.52 761.50
  C 484.73 760.89 492.14 759.79 501.74 758.20
  C 528.59 753.73 553.73 747.51 577.14 739.53
  C 583.22 737.46 588.29 735.54 592.34 733.78
  C 599.45 730.70 605.33 728.71 612.37 725.50
  C 627.59 718.55 642.27 710.69 656.41 701.92
  C 689.26 681.55 717.26 655.79 740.40 624.64
  C 743.36 620.65 748.01 614.06 754.36 604.86
  C 756.59 601.62 759.70 595.62 763.68 586.87
  Z"
/>
<path fill="#3d2d2a" d="
  M 936.15 641.66
  C 941.26 643.97 945.85 647.11 949.94 651.06
  C 956.96 657.84 959.60 668.19 958.42 677.51
  C 958.27 678.67 957.86 680.92 957.17 684.27
  C 956.93 685.46 957.42 686.77 958.65 688.21
  C 971.92 703.84 979.97 721.84 982.80 742.21
  C 985.41 760.93 985.13 782.68 971.59 797.38
  C 967.13 802.21 959.67 804.82 953.25 806.98
  C 952.07 807.38 951.02 808.11 950.24 809.08
  C 947.53 812.42 944.69 815.38 941.73 817.97
  C 937.33 821.80 927.89 827.15 920.99 827.17
  C 916.05 827.18 911.08 827.34 906.42 825.35
  C 902.53 823.69 899.20 821.45 896.44 818.63
  C 896.13 818.32 895.75 818.10 895.34 817.99
  C 894.12 817.66 892.70 817.85 891.08 818.55
  C 887.92 819.90 884.11 822.05 880.27 822.77
  C 874.73 823.81 869.82 823.86 865.55 822.92
  C 859.26 821.54 849.97 817.16 846.34 810.86
  C 843.87 806.56 842.08 801.94 840.99 797.01
  C 840.89 796.54 840.36 792.89 839.40 786.06
  C 838.99 783.07 839.11 780.06 839.76 777.01
  C 839.92 776.23 839.46 775.46 838.70 775.24
  C 831.34 773.10 823.29 769.04 819.53 761.96
  C 817.40 757.95 816.11 754.06 815.64 750.28
  C 814.50 741.00 817.57 730.08 821.04 722.27
  C 821.61 721.00 823.48 717.73 826.65 712.48
  C 832.20 703.28 840.36 695.42 848.35 688.62
  C 850.88 686.46 854.11 685.17 856.50 682.62
  C 856.99 682.09 857.19 681.35 857.02 680.65
  C 855.06 672.64 855.91 664.94 859.56 657.54
  C 863.02 650.55 869.35 646.47 875.98 643.03
  C 878.73 647.47 882.25 650.55 885.31 654.16
  C 885.50 654.40 885.58 654.63 885.54 654.86
  C 885.51 655.05 885.56 655.19 885.69 655.27
  C 885.84 655.36 886.04 655.27 886.07 655.09
  C 886.58 652.33 887.52 649.81 888.91 647.52
  L 887.69 662.74
  C 887.67 662.98 887.69 663.22 887.76 663.45
  C 888.76 666.81 890.83 669.15 893.96 670.48
  C 903.28 674.43 912.36 674.71 921.20 671.34
  C 925.35 669.75 925.29 666.67 926.20 662.88
  C 930.39 655.99 933.71 648.92 936.15 641.66
  Z"
/>
<path fill="#2b8c97" d="
  M 912.33 775.75
  C 912.06 776.42 910.27 780.87 906.94 789.11
  C 906.15 791.08 903.91 794.70 900.24 799.98
  C 892.39 811.30 878.45 819.74 864.24 815.05
  C 857.11 812.69 852.08 807.78 849.15 800.33
  C 848.42 798.46 847.78 795.19 847.24 790.50
  C 845.99 779.67 849.83 771.50 858.74 765.97
  C 859.31 765.62 860.05 765.90 860.24 766.53
  C 862.41 773.58 863.47 780.64 863.42 787.70
  C 863.41 788.81 864.67 789.44 865.56 788.78
  C 866.63 787.97 867.32 787.18 867.62 786.41
  C 871.40 776.74 868.83 764.39 863.59 756.13
  C 860.04 750.55 855.16 746.97 848.94 745.39
  C 847.38 744.99 845.87 745.08 844.42 745.66
  C 843.56 746.00 843.16 747.00 843.56 747.84
  C 844.50 749.84 848.67 751.95 853.50 755.03
  C 855.32 756.19 855.92 757.37 853.93 758.87
  C 851.41 760.78 848.61 762.65 845.52 764.50
  C 836.11 770.14 827.18 762.47 823.87 754.04
  C 821.32 747.55 823.37 735.54 825.59 730.08
  C 831.48 715.64 842.94 702.87 854.33 693.59
  C 856.36 691.94 858.94 690.57 862.08 689.46
  C 862.42 689.35 862.79 689.45 863.02 689.72
  L 865.67 692.91
  C 865.74 693.00 865.83 693.07 865.92 693.14
  C 871.80 697.26 875.65 699.40 881.86 700.02
  C 883.36 700.17 884.05 698.20 882.78 697.39
  L 875.64 692.81
  C 875.31 692.60 875.00 692.37 874.71 692.12
  C 873.62 691.22 871.73 689.34 869.02 686.49
  C 864.97 682.23 863.66 675.97 863.50 670.55
  C 863.23 661.13 871.61 652.86 879.95 649.86
  C 880.30 649.73 880.63 650.08 880.50 650.42
  C 876.56 660.87 878.70 671.57 888.55 677.47
  C 888.95 677.71 889.40 677.88 889.86 677.95
  C 893.09 678.46 895.89 679.89 899.18 680.54
  C 906.35 681.95 914.10 681.80 922.41 680.08
  C 927.95 678.94 930.32 676.40 932.24 671.21
  C 934.68 664.60 935.09 657.83 936.05 650.75
  C 936.10 650.42 936.47 650.26 936.74 650.45
  C 939.72 652.58 941.97 653.69 944.19 656.14
  C 948.82 661.25 950.95 667.43 950.60 674.67
  C 950.26 681.62 947.57 687.04 942.54 690.94
  C 936.18 695.86 928.41 698.91 920.55 701.82
  C 919.36 702.26 918.45 702.96 917.84 703.92
  C 917.44 704.55 917.79 705.38 918.51 705.54
  C 922.16 706.35 925.78 706.11 929.37 704.82
  C 937.59 701.86 945.70 698.71 950.77 692.38
  C 951.03 692.05 951.53 692.01 951.84 692.31
  C 959.41 699.54 963.52 707.68 968.02 717.72
  C 973.70 730.37 976.64 743.49 976.84 757.08
  C 976.91 761.79 975.96 765.65 975.78 770.12
  C 975.57 775.43 972.77 781.75 969.96 786.72
  C 966.97 792.01 962.48 795.48 956.48 797.14
  C 956.10 797.24 955.74 796.93 955.80 796.55
  C 957.07 787.70 957.77 782.68 957.89 781.47
  C 958.26 777.70 957.60 774.19 955.91 770.95
  C 955.65 770.46 954.94 770.52 954.76 771.04
  C 954.17 772.76 953.75 774.41 953.50 775.99
  C 950.91 792.15 946.22 806.56 931.61 816.29
  C 924.02 821.34 913.62 820.53 906.09 816.10
  C 904.72 815.29 903.09 814.60 902.42 813.73
  C 901.66 812.74 901.64 811.36 902.37 810.34
  C 906.01 805.25 908.95 800.05 911.19 794.74
  C 914.14 787.76 914.49 782.77 912.76 775.78
  C 912.71 775.57 912.41 775.55 912.33 775.75
  Z"
/>
<path fill="#2b8c97" d="
  M 96.59 798.85
  C 96.20 798.22 95.23 798.44 95.17 799.18
  C 94.34 808.76 96.63 817.44 102.03 825.23
  C 104.04 828.14 106.28 831.16 108.75 834.31
  C 109.56 835.34 109.47 836.81 108.55 837.73
  C 102.36 843.93 91.15 846.16 83.79 843.53
  C 62.50 835.92 58.72 816.87 54.75 797.36
  C 54.61 796.66 53.91 796.23 53.22 796.42
  C 50.94 797.05 50.00 800.89 49.94 802.98
  C 49.72 809.91 50.92 816.46 53.55 822.61
  C 53.87 823.37 53.04 824.10 52.33 823.69
  L 42.93 818.27
  C 42.53 818.04 42.17 817.73 41.88 817.36
  C 37.55 811.93 34.64 806.76 33.16 801.85
  C 30.75 793.91 29.78 784.86 30.23 774.71
  C 30.87 760.38 34.21 747.00 40.26 734.56
  C 43.57 727.74 47.12 723.09 51.88 717.18
  C 52.17 716.82 52.71 716.81 53.02 717.15
  C 53.89 718.10 54.96 718.98 56.21 719.78
  C 60.22 722.35 64.31 724.68 68.47 726.75
  C 75.74 730.37 82.42 730.16 90.05 729.89
  C 90.35 729.88 90.53 729.57 90.40 729.30
  C 90.24 728.99 90.01 728.75 89.70 728.58
  C 84.75 725.79 75.56 723.81 69.88 720.86
  C 64.20 717.90 59.48 713.70 55.72 708.25
  C 55.35 707.71 55.06 707.12 54.87 706.50
  C 51.46 695.87 52.89 684.62 62.62 677.85
  C 63.45 677.28 64.24 676.46 65.00 675.39
  C 65.18 675.14 65.58 675.25 65.60 675.56
  C 65.92 681.01 67.25 686.38 69.60 691.68
  C 73.67 700.86 83.30 704.75 93.30 704.84
  C 103.26 704.94 116.89 700.57 122.02 691.26
  C 122.73 689.99 123.01 688.16 122.86 685.77
  C 122.54 680.68 122.19 676.68 121.82 673.75
  C 121.69 672.74 121.47 671.83 121.14 671.02
  C 120.91 670.45 121.44 669.87 122.03 670.05
  C 134.36 673.74 142.23 682.30 140.88 696.01
  C 140.47 700.26 139.79 702.26 137.06 705.47
  C 131.78 711.68 125.71 716.76 118.85 720.70
  C 118.52 720.89 118.59 721.38 118.96 721.47
  C 122.15 722.26 124.99 722.11 127.50 721.00
  C 131.37 719.29 134.92 717.60 138.52 714.17
  C 140.57 712.22 142.22 710.63 143.49 709.39
  C 143.63 709.25 143.85 709.21 144.04 709.29
  C 159.19 716.05 171.59 730.03 179.00 744.62
  C 180.91 748.39 182.24 751.68 182.99 754.51
  C 185.20 762.90 186.68 771.70 183.03 779.75
  C 180.21 785.98 173.43 788.49 166.95 787.25
  C 161.97 786.30 157.55 784.01 153.69 780.40
  C 153.37 780.09 153.31 779.60 153.55 779.22
  C 155.77 775.86 160.41 776.31 163.11 773.28
  C 164.43 771.79 164.92 770.01 164.57 767.93
  C 164.52 767.60 164.23 767.36 163.90 767.37
  C 158.24 767.50 154.83 768.60 150.55 772.83
  C 142.82 780.47 138.05 792.13 139.27 802.77
  C 139.31 803.14 139.39 803.51 139.50 803.86
  C 140.31 806.31 141.48 808.85 143.02 811.49
  C 143.19 811.78 143.41 811.99 143.70 812.10
  C 144.18 812.29 144.71 811.97 144.78 811.45
  C 145.43 805.95 146.03 801.48 146.56 798.03
  C 147.10 794.59 147.92 791.49 149.01 788.73
  C 149.11 788.47 149.43 788.37 149.67 788.52
  L 156.93 793.07
  C 157.57 793.47 158.12 794.00 158.56 794.61
  C 165.86 805.08 164.56 824.61 153.73 832.51
  C 146.64 837.68 139.28 839.36 131.63 837.57
  C 119.04 834.62 109.00 824.97 102.99 813.57
  C 100.71 809.23 99.07 802.95 96.59 798.85
  Z"
/>
<path fill="#1897a4" d="
  M 941.07 797.52
  C 924.56 807.33 922.87 789.96 919.11 779.47
  C 914.93 767.80 904.75 775.49 899.40 781.30
  C 897.15 783.75 894.01 787.21 889.99 791.69
  C 886.58 795.48 876.91 803.41 871.67 800.71
  C 869.89 799.80 870.50 796.63 871.01 795.27
  C 874.89 784.92 876.75 775.48 873.69 764.43
  C 870.52 752.97 862.96 742.65 850.98 740.31
  C 847.89 739.71 845.30 739.12 843.19 738.54
  C 836.59 736.71 838.54 730.62 841.01 726.23
  C 848.24 713.38 858.49 705.83 871.76 703.59
  C 872.12 703.53 872.27 703.44 872.21 703.32
  C 872.14 703.19 872.11 703.13 872.11 703.12
  C 872.05 702.92 872.20 702.73 872.41 702.73
  L 879.03 702.93
  C 879.15 702.93 879.26 702.91 879.37 702.86
  C 881.24 701.99 883.47 701.01 885.10 699.53
  C 891.61 693.63 898.36 689.46 907.30 689.51
  C 911.59 689.53 915.46 691.01 916.44 695.80
  C 916.92 698.15 916.40 702.41 917.56 705.00
  C 919.01 708.22 921.88 709.88 926.19 709.97
  C 930.80 710.06 934.95 709.76 938.64 709.07
  C 952.96 706.38 958.72 714.66 963.42 727.14
  C 966.66 735.72 969.26 746.19 964.95 754.56
  C 962.49 759.34 956.29 763.16 951.27 765.39
  C 950.01 765.94 948.96 766.87 948.26 768.05
  C 944.63 774.10 943.08 779.95 942.69 787.49
  C 942.52 790.77 942.15 793.87 941.57 796.80
  C 941.51 797.10 941.33 797.36 941.07 797.52
  Z"
/>
<path fill="#1897a4" d="
  M 91.10 800.90
  C 91.72 806.80 93.46 825.20 84.07 826.38
  C 74.90 827.54 68.46 812.34 65.36 805.48
  C 63.39 801.09 60.53 797.50 56.80 794.71
  C 54.12 792.70 48.03 791.49 45.14 789.17
  C 41.29 786.06 39.35 780.35 38.73 775.46
  C 37.12 762.91 39.52 751.21 45.93 740.36
  C 51.15 731.53 58.77 730.24 68.22 731.81
  C 76.65 733.22 84.01 734.23 90.31 734.85
  C 90.64 734.88 90.97 734.77 91.22 734.54
  C 96.74 729.39 94.79 724.32 90.05 719.91
  C 88.30 718.28 87.32 717.11 87.12 716.41
  C 86.52 714.36 87.32 713.08 89.51 712.58
  C 100.10 710.16 106.99 714.96 114.71 722.14
  C 118.61 725.77 122.82 727.08 127.34 726.06
  C 133.38 724.71 137.40 723.87 139.40 723.56
  C 153.10 721.42 161.17 732.04 164.75 743.66
  C 168.34 755.35 159.33 758.75 150.94 763.67
  C 139.78 770.20 134.07 784.25 134.06 796.51
  C 134.06 801.22 134.70 806.43 135.99 812.14
  C 137.96 820.92 132.24 822.33 125.63 819.28
  C 122.53 817.85 119.71 816.01 117.16 813.76
  C 111.92 809.14 105.42 803.90 97.66 798.04
  C 97.38 797.84 97.01 797.79 96.69 797.93
  L 91.56 800.11
  C 91.25 800.24 91.06 800.56 91.10 800.90
  Z"
/>
<path fill="#fffffe" d="
  M 568.73 771.51
  C 571.22 773.36 572.96 774.79 573.96 775.79
  C 587.43 789.22 596.83 799.24 602.14 805.85
  C 610.78 816.59 616.28 823.67 618.64 827.10
  C 625.11 836.50 631.25 846.32 637.06 856.56
  C 640.87 863.27 644.34 870.55 647.14 875.77
  C 652.23 885.25 654.98 893.67 660.00 906.72
  C 661.97 911.85 664.80 921.50 668.49 935.65
  C 670.60 943.78 672.64 956.23 674.61 973.02
  C 676.16 986.23 676.82 995.73 676.60 1001.50
  C 676.39 1007.13 676.33 1010.79 676.43 1012.48
  C 676.34 1015.01 676.36 1018.66 674.12 1020.36
  C 668.47 1024.64 662.13 1026.21 654.97 1027.82
  C 648.20 1029.33 642.61 1028.36 635.91 1026.74
  C 635.51 1026.65 635.16 1026.43 634.90 1026.11
  C 633.10 1023.89 633.83 1019.73 634.21 1016.35
  C 634.42 1014.42 634.48 1012.19 634.37 1009.66
  C 633.82 996.88 632.98 986.65 631.84 978.97
  C 631.28 975.18 629.91 967.71 627.74 956.55
  C 627.25 954.06 626.69 951.73 626.05 949.54
  C 624.22 943.29 623.35 937.99 621.18 932.21
  C 618.99 926.38 616.94 918.25 613.67 910.93
  C 609.52 901.64 605.70 893.37 602.20 886.14
  C 599.52 880.61 595.87 875.48 593.60 870.95
  C 592.41 868.59 590.18 865.08 586.91 860.43
  C 584.98 857.68 582.72 854.17 580.13 849.91
  C 579.82 849.40 577.21 845.76 572.28 838.99
  C 566.83 831.49 560.09 824.21 553.88 816.52
  C 553.20 815.68 551.20 813.57 547.89 810.20
  C 545.84 808.11 543.98 805.88 542.31 803.50
  L 537.33 797.68
  C 537.14 797.45 536.97 797.21 536.83 796.94
  C 533.50 790.69 536.73 784.33 539.98 778.66
  C 540.15 778.37 540.35 778.10 540.60 777.87
  C 548.37 770.38 558.66 766.11 568.73 771.51
  Z"
/>
<path fill="#4e1e1a" d="
  M 594.15 784.73
  C 595.40 786.23 596.27 787.39 596.76 788.21
  C 596.83 788.34 596.92 788.46 597.02 788.57
  C 603.13 795.59 607.22 800.39 609.28 802.97
  C 614.28 809.24 621.65 818.96 631.38 832.12
  C 632.89 834.17 634.91 837.40 637.43 841.80
  C 643.62 852.61 649.70 864.23 655.68 876.65
  C 667.69 901.61 675.71 928.84 680.06 956.18
  C 681.43 964.80 682.60 974.32 683.56 984.73
  C 683.99 989.46 683.92 994.88 684.38 999.95
  C 684.05 1001.48 683.41 1002.91 682.46 1004.24
  C 680.49 1006.98 678.48 1009.73 676.43 1012.48
  C 676.33 1010.79 676.39 1007.13 676.60 1001.50
  C 676.82 995.73 676.16 986.23 674.61 973.02
  C 672.64 956.23 670.60 943.78 668.49 935.65
  C 664.80 921.50 661.97 911.85 660.00 906.72
  C 654.98 893.67 652.23 885.25 647.14 875.77
  C 644.34 870.55 640.87 863.27 637.06 856.56
  C 631.25 846.32 625.11 836.50 618.64 827.10
  C 616.28 823.67 610.78 816.59 602.14 805.85
  C 596.83 799.24 587.43 789.22 573.96 775.79
  C 572.96 774.79 571.22 773.36 568.73 771.51
  C 573.64 772.25 576.56 775.46 580.27 777.86
  C 581.48 778.64 583.42 779.58 586.09 780.69
  C 589.18 781.98 591.86 783.32 594.15 784.73
  Z"
/>
<path fill="#fffffe" d="
  M 455.98 818.94
  C 451.81 825.24 448.59 830.78 446.32 835.55
  C 443.95 840.54 440.21 849.31 435.09 861.86
  C 433.90 864.79 431.91 871.02 429.12 880.53
  C 427.81 884.01 426.77 886.22 426.01 887.15
  C 422.80 891.10 419.68 894.00 418.87 897.55
  C 417.68 902.74 417.02 908.53 416.88 914.93
  C 416.77 920.08 415.83 921.71 412.97 926.50
  C 411.22 929.43 410.39 933.14 410.49 937.62
  C 410.82 952.87 410.92 965.89 410.79 976.66
  C 410.76 979.35 411.21 982.30 412.04 984.54
  C 412.16 984.88 412.52 985.07 412.87 984.98
  C 413.22 984.89 413.45 984.56 413.41 984.20
  C 412.72 978.39 412.72 972.01 415.23 966.59
  C 415.47 966.06 416.26 966.20 416.31 966.78
  C 416.69 971.07 417.48 975.20 419.65 979.51
  C 422.91 986.03 426.38 994.11 427.18 1001.49
  C 427.68 1006.08 428.04 1009.11 428.25 1010.60
  C 428.83 1014.55 431.64 1019.15 432.46 1022.78
  C 432.95 1024.97 433.20 1027.16 433.21 1029.35
  C 433.21 1030.02 432.67 1030.56 432.00 1030.56
  L 414.44 1030.56
  C 413.80 1030.56 413.56 1029.71 414.12 1029.39
  L 423.04 1024.25
  C 423.59 1023.93 423.38 1023.10 422.75 1023.07
  C 416.79 1022.84 412.29 1022.55 409.25 1022.21
  C 402.41 1021.45 395.75 1021.13 394.59 1013.84
  C 393.86 1009.26 394.03 1003.94 392.24 998.62
  C 391.38 996.09 391.58 995.19 392.52 992.55
  C 392.73 991.96 392.51 991.31 391.99 990.97
  C 387.01 987.77 386.19 980.79 386.08 975.23
  C 386.06 974.11 385.76 973.02 385.20 972.05
  C 383.18 968.54 380.73 965.26 377.84 962.20
  C 377.49 959.79 377.24 957.30 377.08 954.75
  C 376.12 939.71 376.27 924.94 377.54 910.45
  C 378.34 901.34 379.81 894.76 381.91 883.88
  C 383.38 876.28 385.50 868.64 388.26 860.96
  C 393.03 847.67 397.39 837.12 401.33 829.30
  C 406.48 819.09 411.97 809.59 417.81 800.80
  C 424.20 791.18 433.14 784.99 444.82 786.47
  C 450.58 787.20 455.19 790.00 458.66 794.89
  C 460.41 797.36 461.46 799.99 461.79 802.77
  C 462.51 808.83 458.76 813.87 455.98 818.94
  Z"
/>
<path fill="#3d2d2a" d="
  M 676.43 1012.48
  C 678.48 1009.73 680.49 1006.98 682.46 1004.24
  C 683.41 1002.91 684.05 1001.48 684.38 999.95
  C 690.97 1001.08 696.10 1002.34 699.75 1003.74
  C 702.49 1004.79 706.23 1006.89 710.96 1010.04
  C 713.33 1011.61 715.49 1014.19 717.46 1017.78
  C 721.34 1024.85 719.94 1034.26 716.20 1041.25
  C 715.82 1041.97 715.73 1042.82 715.97 1043.60
  L 717.68 1049.25
  C 717.86 1049.83 718.35 1050.25 718.94 1050.34
  C 721.31 1050.70 724.89 1049.23 727.33 1048.29
  C 727.91 1048.07 729.30 1047.71 731.49 1047.20
  C 739.14 1045.44 745.64 1044.08 751.00 1043.12
  C 755.85 1042.25 761.87 1041.82 769.06 1041.83
  C 772.92 1041.84 776.76 1043.08 780.87 1042.95
  C 781.48 1042.93 782.09 1043.03 782.66 1043.23
  C 787.64 1044.97 795.14 1046.41 800.67 1049.03
  C 806.36 1051.72 810.62 1053.93 813.45 1055.64
  C 823.17 1061.52 831.09 1069.26 837.27 1079.31
  C 842.95 1088.56 844.77 1099.84 843.84 1110.75
  C 843.38 1116.14 843.13 1119.21 843.08 1119.97
  C 843.02 1120.93 843.06 1121.90 843.21 1122.86
  C 844.78 1132.95 843.52 1144.70 835.72 1151.90
  C 829.60 1157.54 821.92 1161.37 813.94 1164.70
  C 810.35 1166.19 805.99 1167.46 800.85 1168.50
  C 778.15 1173.09 756.52 1174.52 735.96 1172.80
  C 725.09 1171.90 711.46 1170.16 695.06 1167.57
  C 691.12 1166.94 687.59 1166.15 684.48 1165.19
  C 679.72 1163.71 675.11 1162.93 670.45 1161.60
  C 658.60 1158.21 651.37 1156.00 648.76 1154.96
  C 643.54 1152.88 638.90 1151.05 634.85 1149.46
  C 626.48 1146.17 617.51 1141.38 611.28 1137.95
  C 606.53 1135.35 601.56 1131.91 596.35 1127.63
  C 593.76 1125.50 592.24 1122.86 591.80 1119.71
  C 591.07 1114.49 591.55 1107.80 590.99 1102.80
  C 590.16 1095.46 589.53 1092.32 590.25 1086.19
  C 590.84 1081.12 591.88 1075.55 593.35 1069.48
  C 594.82 1063.41 597.54 1058.45 600.07 1052.48
  C 600.58 1051.29 600.49 1049.93 599.83 1048.82
  C 598.74 1046.97 597.74 1045.16 596.83 1043.37
  C 591.25 1032.41 596.83 1020.79 606.31 1013.96
  C 611.48 1010.23 617.11 1007.40 623.20 1005.47
  C 623.40 1005.40 624.33 1004.84 626.00 1003.79
  C 626.32 1003.59 626.52 1003.24 626.54 1002.86
  C 626.63 1001.11 626.63 999.74 626.54 998.75
  C 625.59 988.02 623.92 976.42 621.53 963.93
  C 618.38 947.51 613.58 930.55 606.92 915.01
  C 603.70 907.49 602.04 902.08 598.51 895.64
  C 590.51 881.05 585.83 871.53 578.50 861.32
  C 575.51 857.17 573.14 852.64 569.55 847.89
  C 564.26 840.90 560.89 836.42 559.44 834.46
  C 557.47 831.79 553.79 827.55 548.42 821.72
  C 544.62 817.59 540.91 813.40 537.30 809.13
  C 538.63 807.00 540.30 805.13 542.31 803.50
  C 543.98 805.88 545.84 808.11 547.89 810.20
  C 551.20 813.57 553.20 815.68 553.88 816.52
  C 560.09 824.21 566.83 831.49 572.28 838.99
  C 577.21 845.76 579.82 849.40 580.13 849.91
  C 582.72 854.17 584.98 857.68 586.91 860.43
  C 590.18 865.08 592.41 868.59 593.60 870.95
  C 595.87 875.48 599.52 880.61 602.20 886.14
  C 605.70 893.37 609.52 901.64 613.67 910.93
  C 616.94 918.25 618.99 926.38 621.18 932.21
  C 623.35 937.99 624.22 943.29 626.05 949.54
  C 626.69 951.73 627.25 954.06 627.74 956.55
  C 629.91 967.71 631.28 975.18 631.84 978.97
  C 632.98 986.65 633.82 996.88 634.37 1009.66
  C 634.48 1012.19 634.42 1014.42 634.21 1016.35
  C 633.83 1019.73 633.10 1023.89 634.90 1026.11
  C 635.16 1026.43 635.51 1026.65 635.91 1026.74
  C 642.61 1028.36 648.20 1029.33 654.97 1027.82
  C 662.13 1026.21 668.47 1024.64 674.12 1020.36
  C 676.36 1018.66 676.34 1015.01 676.43 1012.48
  Z"
/>
<g stroke-width="2.00" fill="none" stroke-linecap="butt">
<path stroke="#285e66" d="
  M 829.20 1126.70
  C 817.67 1135.29 803.81 1140.08 788.76 1142.48
  C 784.23 1143.21 781.34 1143.65 780.09 1143.82
  C 770.84 1145.05 761.06 1145.48 750.77 1145.11
  C 738.29 1144.66 726.77 1143.55 716.20 1141.78
  C 708.13 1140.43 699.01 1138.72 688.84 1136.67
  C 677.51 1134.38 668.52 1132.11 661.87 1129.87
  C 645.21 1124.24 634.30 1120.32 629.15 1118.10
  C 621.21 1114.67 611.24 1109.31 599.24 1102.00"
/>
<path stroke="#22929e" d="
  M 623.80 1060.53
  C 621.37 1061.06 618.98 1061.60 616.62 1062.15
  C 610.07 1063.68 607.74 1065.59 604.95 1071.17
  C 602.16 1076.78 600.85 1082.56 601.04 1088.51
  C 601.20 1093.63 601.80 1098.68 605.70 1101.51
  C 608.96 1103.88 614.98 1107.28 620.28 1109.09
  C 624.14 1110.41 627.14 1111.37 630.77 1113.24
  C 631.99 1113.87 636.45 1116.81 640.11 1117.90
  C 645.35 1119.46 650.64 1120.46 656.16 1121.89
  C 660.33 1122.97 664.68 1124.41 669.21 1126.20
  C 676.68 1129.17 683.87 1131.59 690.78 1133.48
  C 697.27 1135.25 704.45 1135.31 710.87 1136.69
  C 715.57 1137.70 720.15 1138.68 724.62 1139.62
  C 729.89 1140.72 737.73 1140.31 741.16 1140.26
  C 754.69 1140.08 766.59 1142.78 779.08 1140.89
  C 789.05 1139.38 798.29 1136.98 806.82 1133.69
  C 808.42 1133.07 809.93 1132.22 811.30 1131.16
  C 815.95 1127.53 819.34 1124.99 821.46 1123.54
  C 826.33 1120.23 829.47 1116.51 830.59 1111.14
  C 832.62 1101.37 830.36 1092.75 823.82 1085.28
  C 820.47 1081.45 815.77 1075.99 809.92 1077.28"
/>
<path stroke="#4da4ae" d="
  M 809.92 1077.28
  C 803.64 1068.12 794.67 1064.84 784.50 1061.79
  C 777.57 1059.71 770.56 1059.03 763.47 1059.74"
/>
<path stroke="#22929e" d="
  M 763.47 1059.74
  C 758.05 1059.54 752.64 1059.34 747.25 1059.14
  C 743.22 1058.99 739.61 1059.23 736.42 1059.85
  C 729.39 1061.21 722.86 1063.19 716.84 1065.80
  C 713.84 1067.10 711.69 1068.34 710.40 1069.51
  C 706.02 1073.46 702.37 1076.70 699.45 1079.22
  C 695.50 1082.62 692.92 1088.25 688.65 1090.93
  C 681.97 1095.13 667.67 1092.11 674.75 1080.88
  C 678.33 1075.20 681.30 1069.55 680.64 1062.71
  C 680.50 1061.26 679.21 1057.06 676.78 1050.10
  C 676.68 1049.81 676.72 1049.49 676.88 1049.23
  C 678.05 1047.38 679.30 1046.32 680.62 1046.04
  C 687.65 1044.58 693.62 1042.50 698.52 1039.81
  C 704.01 1036.79 706.90 1032.14 707.19 1025.86
  C 707.21 1025.51 707.13 1025.15 706.96 1024.84
  C 705.35 1021.81 703.91 1019.74 702.65 1018.63
  C 694.31 1011.27 689.37 1019.78 684.55 1025.53
  C 678.87 1032.31 671.53 1036.11 662.45 1037.80
  C 653.20 1039.52 644.30 1039.66 635.75 1038.23
  C 627.65 1036.87 625.23 1032.71 621.23 1025.91
  C 620.74 1025.07 619.71 1024.73 618.81 1025.11
  C 615.78 1026.38 612.38 1028.57 608.60 1031.70
  C 607.84 1032.33 607.40 1032.93 607.27 1033.52
  C 607.02 1034.68 606.85 1035.47 606.76 1035.88
  C 606.62 1036.53 606.82 1037.20 607.29 1037.67
  C 610.79 1041.10 613.80 1043.69 616.32 1045.44
  C 619.62 1047.72 624.12 1049.30 627.92 1051.23
  C 630.15 1052.36 631.44 1054.00 631.79 1056.14"
/>
<path stroke="#285e66" d="
  M 831.79 1134.78
  C 829.96 1136.45 827.95 1137.86 825.76 1138.99
  C 816.45 1143.77 808.74 1145.79 798.25 1148.75
  C 793.98 1149.95 789.93 1150.71 786.10 1151.04
  C 780.40 1151.52 773.97 1152.86 767.27 1153.14
  C 751.50 1153.80 735.79 1152.95 720.14 1150.60
  C 707.25 1148.66 699.37 1147.44 696.51 1146.93
  C 682.61 1144.45 663.37 1138.12 651.95 1134.75
  C 639.86 1131.19 629.37 1127.13 618.46 1122.03
  C 612.30 1119.15 606.18 1115.78 600.09 1111.92"
/>
<path stroke="#44a9b4" d="
  M 763.47 1059.74
  C 758.23 1061.21 752.66 1064.51 755.84 1070.93
  C 757.60 1074.48 760.27 1077.14 763.86 1078.89
  C 774.29 1084.01 785.52 1087.15 797.53 1088.31
  C 801.76 1088.72 805.63 1087.65 809.12 1085.09
  C 811.74 1083.17 811.25 1079.73 809.92 1077.28"
/>
</g>
<path fill="#3d2d2a" d="
  M 461.66 823.04
  C 459.97 825.85 458.46 828.79 457.13 831.84
  C 455.46 835.64 453.20 838.49 451.63 842.13
  C 448.42 849.56 444.31 858.29 441.37 867.23
  C 437.20 879.88 434.57 888.54 433.49 893.22
  C 432.54 897.35 431.42 905.04 430.14 916.27
  C 429.85 916.59 429.77 917.16 429.90 917.98
  L 429.64 923.02
  C 429.27 923.45 429.26 923.85 429.61 924.24
  L 428.90 942.46
  C 428.84 942.89 428.85 943.30 428.93 943.71
  C 429.84 954.50 430.56 961.84 431.08 965.73
  C 432.07 973.26 434.01 982.43 436.88 993.24
  C 437.92 997.15 439.20 1000.00 440.37 1003.64
  C 440.86 1005.15 442.07 1006.10 444.02 1006.48
  C 461.17 1009.82 478.10 1019.98 474.98 1040.38
  C 474.50 1043.56 472.77 1046.35 471.86 1048.90
  C 471.51 1049.87 471.57 1050.94 472.04 1051.87
  C 474.38 1056.54 477.62 1063.25 479.35 1069.58
  C 480.16 1072.56 481.12 1075.51 482.23 1078.42
  C 482.47 1079.05 482.63 1079.71 482.70 1080.37
  C 483.01 1083.28 484.13 1086.55 484.27 1089.89
  C 484.80 1102.51 484.95 1111.04 484.73 1115.49
  C 484.67 1116.69 484.38 1118.55 483.85 1121.07
  C 482.43 1127.95 471.10 1135.17 465.32 1138.56
  C 454.58 1144.86 443.28 1150.38 431.43 1155.12
  C 424.98 1157.69 414.84 1160.96 400.99 1164.91
  C 396.22 1166.26 390.37 1167.48 383.42 1168.56
  C 372.33 1170.27 359.07 1172.46 345.10 1173.62
  C 337.57 1174.25 330.67 1174.50 324.42 1174.38
  C 306.36 1174.03 288.87 1171.87 271.96 1167.90
  C 263.38 1165.89 253.60 1162.36 247.25 1158.25
  C 236.44 1151.23 235.19 1140.82 236.48 1128.71
  C 236.53 1128.20 236.54 1127.68 236.50 1127.16
  C 236.45 1126.52 235.91 1122.93 234.90 1116.39
  C 234.18 1111.80 234.99 1107.16 235.75 1101.88
  C 237.30 1091.12 241.80 1082.04 249.18 1073.68
  C 258.06 1063.62 268.29 1056.74 280.45 1051.43
  C 295.79 1044.75 312.36 1043.46 328.92 1045.61
  C 330.45 1045.81 333.78 1046.38 338.90 1047.31
  C 344.49 1048.34 349.61 1050.01 355.32 1051.03
  C 355.40 1051.05 355.48 1051.07 355.56 1051.09
  L 361.38 1053.00
  C 362.70 1053.43 363.77 1051.87 362.88 1050.80
  C 356.11 1042.59 355.41 1031.24 362.06 1022.75
  C 366.70 1016.82 373.15 1013.78 379.56 1009.67
  C 381.40 1009.28 382.92 1008.23 384.13 1006.50
  C 384.29 1006.27 384.65 1005.42 385.21 1003.95
  C 385.27 1003.80 385.48 1003.82 385.52 1003.97
  C 386.27 1006.71 387.61 1010.64 389.54 1015.75
  C 390.30 1017.76 391.30 1019.50 392.53 1020.97
  L 397.12 1030.37
  C 397.66 1031.46 398.85 1032.39 400.41 1032.93
  C 403.08 1033.85 406.93 1035.22 411.14 1035.26
  C 415.56 1035.29 419.10 1035.23 421.77 1035.07
  C 426.45 1034.78 431.19 1033.32 436.00 1030.69
  C 437.79 1029.71 438.99 1028.72 439.58 1027.71
  C 439.80 1027.34 439.93 1026.91 439.94 1026.47
  C 439.97 1025.30 439.00 1022.31 437.01 1017.52
  C 433.75 1009.65 430.86 1000.40 428.33 989.75
  C 427.01 984.18 425.95 979.82 425.14 976.67
  C 423.92 971.89 423.66 966.88 422.93 962.80
  C 422.50 960.41 422.17 957.68 421.92 954.63
  C 420.69 939.07 421.16 923.28 423.31 907.27
  C 423.81 903.55 425.75 894.64 429.12 880.53
  C 431.91 871.02 433.90 864.79 435.09 861.86
  C 440.21 849.31 443.95 840.54 446.32 835.55
  C 448.59 830.78 451.81 825.24 455.98 818.94
  L 461.66 823.04
  Z"
/>
<g stroke-width="2.00" fill="none" stroke-linecap="butt">
<path stroke="#285e66" d="
  M 475.14 1101.54
  C 470.61 1104.87 466.31 1108.03 462.22 1111.04
  C 456.51 1115.24 452.09 1118.22 448.96 1119.99
  C 437.48 1126.45 426.88 1130.29 411.94 1135.41
  C 407.06 1137.08 398.84 1139.20 387.29 1141.76
  C 382.34 1142.86 376.93 1143.83 371.07 1144.66
  C 361.43 1146.03 355.99 1146.77 354.75 1146.88
  C 332.04 1148.97 309.46 1148.27 286.99 1144.77
  C 276.14 1143.08 265.80 1139.87 255.97 1135.15"
/>
<path stroke="#7b807c" d="
  M 387.13 1068.77
  L 388.32 1063.81"
/>
<path stroke="#285e66" d="
  M 471.54 1114.73
  C 469.69 1116.18 467.80 1117.54 465.89 1118.82
  C 456.11 1125.39 446.26 1130.72 436.35 1134.80
  C 426.48 1138.87 417.74 1142.05 410.15 1144.35
  C 400.08 1147.40 388.73 1150.04 376.09 1152.28
  C 362.65 1154.66 349.13 1155.45 335.94 1155.87
  C 316.13 1156.52 296.60 1154.92 277.34 1151.09
  C 269.03 1149.44 261.18 1146.55 253.77 1142.43"
/>
</g>
<path fill="#f6f2e1" d="
  M 429.12 880.53
  C 425.75 894.64 423.81 903.55 423.31 907.27
  C 421.16 923.28 420.69 939.07 421.92 954.63
  C 422.17 957.68 422.50 960.41 422.93 962.80
  C 423.66 966.88 423.92 971.89 425.14 976.67
  C 425.95 979.82 427.01 984.18 428.33 989.75
  C 430.86 1000.40 433.75 1009.65 437.01 1017.52
  C 439.00 1022.31 439.97 1025.30 439.94 1026.47
  C 439.93 1026.91 439.80 1027.34 439.58 1027.71
  C 438.99 1028.72 437.79 1029.71 436.00 1030.69
  C 431.19 1033.32 426.45 1034.78 421.77 1035.07
  C 419.10 1035.23 415.56 1035.29 411.14 1035.26
  C 406.93 1035.22 403.08 1033.85 400.41 1032.93
  C 398.85 1032.39 397.66 1031.46 397.12 1030.37
  L 392.53 1020.97
  C 389.79 1012.35 386.75 1003.51 384.67 995.09
  C 381.98 984.25 379.71 973.29 377.84 962.20
  C 380.73 965.26 383.18 968.54 385.20 972.05
  C 385.76 973.02 386.06 974.11 386.08 975.23
  C 386.19 980.79 387.01 987.77 391.99 990.97
  C 392.51 991.31 392.73 991.96 392.52 992.55
  C 391.58 995.19 391.38 996.09 392.24 998.62
  C 394.03 1003.94 393.86 1009.26 394.59 1013.84
  C 395.75 1021.13 402.41 1021.45 409.25 1022.21
  C 412.29 1022.55 416.79 1022.84 422.75 1023.07
  C 423.38 1023.10 423.59 1023.93 423.04 1024.25
  L 414.12 1029.39
  C 413.56 1029.71 413.80 1030.56 414.44 1030.56
  L 432.00 1030.56
  C 432.67 1030.56 433.21 1030.02 433.21 1029.35
  C 433.20 1027.16 432.95 1024.97 432.46 1022.78
  C 431.64 1019.15 428.83 1014.55 428.25 1010.60
  C 428.04 1009.11 427.68 1006.08 427.18 1001.49
  C 426.38 994.11 422.91 986.03 419.65 979.51
  C 417.48 975.20 416.69 971.07 416.31 966.78
  C 416.26 966.20 415.47 966.06 415.23 966.59
  C 412.72 972.01 412.72 978.39 413.41 984.20
  C 413.45 984.56 413.22 984.89 412.87 984.98
  C 412.52 985.07 412.16 984.88 412.04 984.54
  C 411.21 982.30 410.76 979.35 410.79 976.66
  C 410.92 965.89 410.82 952.87 410.49 937.62
  C 410.39 933.14 411.22 929.43 412.97 926.50
  C 415.83 921.71 416.77 920.08 416.88 914.93
  C 417.02 908.53 417.68 902.74 418.87 897.55
  C 419.68 894.00 422.80 891.10 426.01 887.15
  C 426.77 886.22 427.81 884.01 429.12 880.53
  Z"
/>
<path fill="#253034" d="
  M 430.14 916.27
  C 429.93 916.78 429.85 917.35 429.90 917.98
  C 429.77 917.16 429.85 916.59 430.14 916.27
  Z"
/>
<path fill="#253034" d="
  M 429.64 923.02
  L 429.61 924.24
  C 429.26 923.85 429.27 923.45 429.64 923.02
  Z"
/>
<path fill="#253034" d="
  M 428.93 943.71
  C 428.85 943.30 428.84 942.89 428.90 942.46
  L 428.93 943.71
  Z"
/>
<path fill="#2b8c97" d="
  M 829.20 1126.70
  C 817.67 1135.29 803.81 1140.08 788.76 1142.48
  C 784.23 1143.21 781.34 1143.65 780.09 1143.82
  C 770.84 1145.05 761.06 1145.48 750.77 1145.11
  C 738.29 1144.66 726.77 1143.55 716.20 1141.78
  C 708.13 1140.43 699.01 1138.72 688.84 1136.67
  C 677.51 1134.38 668.52 1132.11 661.87 1129.87
  C 645.21 1124.24 634.30 1120.32 629.15 1118.10
  C 621.21 1114.67 611.24 1109.31 599.24 1102.00
  C 598.93 1101.20 598.72 1100.54 598.63 1100.02
  C 597.11 1091.60 597.50 1083.06 599.81 1074.39
  C 601.44 1068.31 603.77 1062.63 606.80 1057.35
  C 607.05 1056.90 607.60 1056.70 608.09 1056.88
  C 612.96 1058.68 618.20 1059.90 623.80 1060.53
  C 621.37 1061.06 618.98 1061.60 616.62 1062.15
  C 610.07 1063.68 607.74 1065.59 604.95 1071.17
  C 602.16 1076.78 600.85 1082.56 601.04 1088.51
  C 601.20 1093.63 601.80 1098.68 605.70 1101.51
  C 608.96 1103.88 614.98 1107.28 620.28 1109.09
  C 624.14 1110.41 627.14 1111.37 630.77 1113.24
  C 631.99 1113.87 636.45 1116.81 640.11 1117.90
  C 645.35 1119.46 650.64 1120.46 656.16 1121.89
  C 660.33 1122.97 664.68 1124.41 669.21 1126.20
  C 676.68 1129.17 683.87 1131.59 690.78 1133.48
  C 697.27 1135.25 704.45 1135.31 710.87 1136.69
  C 715.57 1137.70 720.15 1138.68 724.62 1139.62
  C 729.89 1140.72 737.73 1140.31 741.16 1140.26
  C 754.69 1140.08 766.59 1142.78 779.08 1140.89
  C 789.05 1139.38 798.29 1136.98 806.82 1133.69
  C 808.42 1133.07 809.93 1132.22 811.30 1131.16
  C 815.95 1127.53 819.34 1124.99 821.46 1123.54
  C 826.33 1120.23 829.47 1116.51 830.59 1111.14
  C 832.62 1101.37 830.36 1092.75 823.82 1085.28
  C 820.47 1081.45 815.77 1075.99 809.92 1077.28
  C 803.64 1068.12 794.67 1064.84 784.50 1061.79
  C 777.57 1059.71 770.56 1059.03 763.47 1059.74
  C 758.05 1059.54 752.64 1059.34 747.25 1059.14
  C 743.22 1058.99 739.61 1059.23 736.42 1059.85
  C 729.39 1061.21 722.86 1063.19 716.84 1065.80
  C 713.84 1067.10 711.69 1068.34 710.40 1069.51
  C 706.02 1073.46 702.37 1076.70 699.45 1079.22
  C 695.50 1082.62 692.92 1088.25 688.65 1090.93
  C 681.97 1095.13 667.67 1092.11 674.75 1080.88
  C 678.33 1075.20 681.30 1069.55 680.64 1062.71
  C 680.50 1061.26 679.21 1057.06 676.78 1050.10
  C 676.68 1049.81 676.72 1049.49 676.88 1049.23
  C 678.05 1047.38 679.30 1046.32 680.62 1046.04
  C 687.65 1044.58 693.62 1042.50 698.52 1039.81
  C 704.01 1036.79 706.90 1032.14 707.19 1025.86
  C 707.21 1025.51 707.13 1025.15 706.96 1024.84
  C 705.35 1021.81 703.91 1019.74 702.65 1018.63
  C 694.31 1011.27 689.37 1019.78 684.55 1025.53
  C 678.87 1032.31 671.53 1036.11 662.45 1037.80
  C 653.20 1039.52 644.30 1039.66 635.75 1038.23
  C 627.65 1036.87 625.23 1032.71 621.23 1025.91
  C 620.74 1025.07 619.71 1024.73 618.81 1025.11
  C 615.78 1026.38 612.38 1028.57 608.60 1031.70
  C 607.84 1032.33 607.40 1032.93 607.27 1033.52
  C 607.02 1034.68 606.85 1035.47 606.76 1035.88
  C 606.62 1036.53 606.82 1037.20 607.29 1037.67
  C 610.79 1041.10 613.80 1043.69 616.32 1045.44
  C 619.62 1047.72 624.12 1049.30 627.92 1051.23
  C 630.15 1052.36 631.44 1054.00 631.79 1056.14
  C 626.38 1055.25 621.13 1053.86 616.04 1051.95
  C 612.03 1050.46 609.05 1048.35 607.09 1045.64
  C 605.08 1042.86 603.76 1040.70 603.11 1039.16
  C 600.68 1033.38 603.60 1026.47 607.81 1022.31
  C 612.51 1017.66 617.99 1014.58 624.26 1013.08
  C 624.69 1012.98 625.12 1013.29 625.15 1013.73
  C 625.32 1016.08 625.33 1018.26 625.20 1020.26
  C 624.82 1025.89 624.88 1029.57 629.58 1032.80
  C 630.97 1033.75 633.25 1034.43 636.42 1034.84
  C 644.82 1035.91 648.30 1036.74 655.78 1035.30
  C 658.68 1034.75 663.44 1033.57 670.07 1031.78
  C 674.30 1030.63 678.04 1028.28 681.27 1024.72
  C 681.84 1024.11 682.26 1023.38 682.51 1022.58
  C 684.00 1017.91 684.78 1013.21 684.84 1008.48
  C 684.85 1007.92 685.36 1007.51 685.91 1007.63
  C 690.92 1008.70 695.65 1010.20 700.11 1012.13
  C 701.98 1012.94 704.63 1014.85 708.04 1017.85
  C 713.79 1022.90 712.50 1028.13 710.35 1034.52
  C 708.57 1039.80 703.08 1043.48 698.26 1045.50
  C 696.53 1046.22 692.00 1048.13 684.66 1051.23
  C 684.12 1051.46 683.62 1051.76 683.18 1052.14
  L 680.17 1054.67
  C 679.90 1054.90 680.01 1055.34 680.36 1055.42
  C 690.43 1057.68 697.78 1054.31 707.09 1048.62
  C 708.29 1047.89 709.79 1048.89 709.59 1050.27
  L 709.41 1051.49
  C 709.13 1053.40 708.10 1055.13 706.55 1056.28
  C 701.73 1059.85 694.26 1064.28 689.39 1069.29
  C 685.09 1073.70 682.82 1076.05 682.58 1076.33
  C 681.58 1077.46 678.36 1082.00 678.09 1084.24
  C 677.91 1085.72 677.88 1087.03 678.00 1088.18
  C 678.03 1088.54 678.33 1088.83 678.69 1088.85
  C 683.10 1089.19 684.99 1087.51 687.69 1083.88
  C 695.41 1073.52 706.15 1063.97 718.39 1059.85
  C 724.39 1057.83 728.47 1055.70 734.49 1054.25
  C 743.65 1052.04 750.83 1050.65 756.02 1050.06
  C 756.73 1049.98 760.63 1049.90 767.72 1049.83
  C 772.19 1049.78 776.07 1050.08 779.36 1050.72
  C 786.05 1052.01 791.62 1053.51 796.06 1055.21
  C 811.18 1060.98 826.03 1072.52 832.32 1087.43
  C 835.48 1094.93 836.91 1102.45 836.60 1110.00
  C 836.34 1116.33 833.87 1121.90 829.20 1126.70
  Z"
/>
<path fill="#1897a4" d="
  M 763.47 1059.74
  C 758.23 1061.21 752.66 1064.51 755.84 1070.93
  C 757.60 1074.48 760.27 1077.14 763.86 1078.89
  C 774.29 1084.01 785.52 1087.15 797.53 1088.31
  C 801.76 1088.72 805.63 1087.65 809.12 1085.09
  C 811.74 1083.17 811.25 1079.73 809.92 1077.28
  C 815.77 1075.99 820.47 1081.45 823.82 1085.28
  C 830.36 1092.75 832.62 1101.37 830.59 1111.14
  C 829.47 1116.51 826.33 1120.23 821.46 1123.54
  C 819.34 1124.99 815.95 1127.53 811.30 1131.16
  C 809.93 1132.22 808.42 1133.07 806.82 1133.69
  C 798.29 1136.98 789.05 1139.38 779.08 1140.89
  C 766.59 1142.78 754.69 1140.08 741.16 1140.26
  C 737.73 1140.31 729.89 1140.72 724.62 1139.62
  C 720.15 1138.68 715.57 1137.70 710.87 1136.69
  C 704.45 1135.31 697.27 1135.25 690.78 1133.48
  C 683.87 1131.59 676.68 1129.17 669.21 1126.20
  C 664.68 1124.41 660.33 1122.97 656.16 1121.89
  C 650.64 1120.46 645.35 1119.46 640.11 1117.90
  C 636.45 1116.81 631.99 1113.87 630.77 1113.24
  C 627.14 1111.37 624.14 1110.41 620.28 1109.09
  C 614.98 1107.28 608.96 1103.88 605.70 1101.51
  C 601.80 1098.68 601.20 1093.63 601.04 1088.51
  C 600.85 1082.56 602.16 1076.78 604.95 1071.17
  C 607.74 1065.59 610.07 1063.68 616.62 1062.15
  C 618.98 1061.60 621.37 1061.06 623.80 1060.53
  C 629.17 1061.27 635.10 1061.47 639.87 1058.40
  C 640.25 1058.15 640.13 1057.56 639.68 1057.49
  L 631.79 1056.14
  C 631.44 1054.00 630.15 1052.36 627.92 1051.23
  C 624.12 1049.30 619.62 1047.72 616.32 1045.44
  C 613.80 1043.69 610.79 1041.10 607.29 1037.67
  C 606.82 1037.20 606.62 1036.53 606.76 1035.88
  C 606.85 1035.47 607.02 1034.68 607.27 1033.52
  C 607.40 1032.93 607.84 1032.33 608.60 1031.70
  C 612.38 1028.57 615.78 1026.38 618.81 1025.11
  C 619.71 1024.73 620.74 1025.07 621.23 1025.91
  C 625.23 1032.71 627.65 1036.87 635.75 1038.23
  C 644.30 1039.66 653.20 1039.52 662.45 1037.80
  C 671.53 1036.11 678.87 1032.31 684.55 1025.53
  C 689.37 1019.78 694.31 1011.27 702.65 1018.63
  C 703.91 1019.74 705.35 1021.81 706.96 1024.84
  C 707.13 1025.15 707.21 1025.51 707.19 1025.86
  C 706.90 1032.14 704.01 1036.79 698.52 1039.81
  C 693.62 1042.50 687.65 1044.58 680.62 1046.04
  C 679.30 1046.32 678.05 1047.38 676.88 1049.23
  C 676.72 1049.49 676.68 1049.81 676.78 1050.10
  C 679.21 1057.06 680.50 1061.26 680.64 1062.71
  C 681.30 1069.55 678.33 1075.20 674.75 1080.88
  C 667.67 1092.11 681.97 1095.13 688.65 1090.93
  C 692.92 1088.25 695.50 1082.62 699.45 1079.22
  C 702.37 1076.70 706.02 1073.46 710.40 1069.51
  C 711.69 1068.34 713.84 1067.10 716.84 1065.80
  C 722.86 1063.19 729.39 1061.21 736.42 1059.85
  C 739.61 1059.23 743.22 1058.99 747.25 1059.14
  C 752.64 1059.34 758.05 1059.54 763.47 1059.74
  Z"
/>
<path fill="#2b8c97" d="
  M 475.14 1101.54
  C 470.61 1104.87 466.31 1108.03 462.22 1111.04
  C 456.51 1115.24 452.09 1118.22 448.96 1119.99
  C 437.48 1126.45 426.88 1130.29 411.94 1135.41
  C 407.06 1137.08 398.84 1139.20 387.29 1141.76
  C 382.34 1142.86 376.93 1143.83 371.07 1144.66
  C 361.43 1146.03 355.99 1146.77 354.75 1146.88
  C 332.04 1148.97 309.46 1148.27 286.99 1144.77
  C 276.14 1143.08 265.80 1139.87 255.97 1135.15
  C 248.01 1131.36 243.52 1125.07 242.51 1116.26
  C 241.79 1110.03 242.26 1104.18 243.92 1098.71
  C 244.96 1095.28 247.19 1090.61 250.62 1084.72
  C 252.77 1081.03 256.14 1077.12 260.73 1072.99
  C 267.19 1067.19 273.87 1062.66 280.76 1059.40
  C 284.04 1057.84 287.01 1056.68 289.68 1055.93
  C 292.80 1055.05 295.65 1054.14 298.22 1053.21
  C 298.63 1053.06 299.07 1052.96 299.51 1052.91
  C 308.50 1051.96 316.34 1051.76 323.01 1052.31
  C 325.45 1052.51 330.11 1053.20 336.98 1054.38
  C 341.46 1055.15 346.01 1056.33 350.64 1057.92
  C 358.39 1060.59 364.83 1063.20 369.98 1065.75
  C 374.64 1068.06 378.13 1071.68 383.65 1076.86
  C 385.72 1078.80 387.98 1081.63 390.41 1085.34
  C 392.30 1088.22 395.53 1091.66 398.78 1090.96
  C 399.53 1090.80 400.06 1090.12 400.02 1089.35
  C 399.73 1084.08 397.77 1079.58 394.15 1075.86
  C 391.84 1073.48 389.50 1071.12 387.13 1068.77
  L 388.32 1063.81
  C 390.03 1063.25 391.75 1062.91 393.48 1062.79
  C 395.19 1062.68 396.57 1062.05 397.64 1060.92
  C 398.15 1060.39 398.23 1059.84 397.90 1059.28
  C 397.41 1058.47 396.62 1057.94 395.52 1057.71
  C 387.10 1055.92 378.70 1053.62 372.19 1048.83
  C 367.81 1045.60 363.70 1038.64 365.58 1032.89
  C 367.46 1027.14 371.62 1023.62 376.85 1020.07
  C 378.25 1019.12 380.06 1018.59 381.40 1018.29
  C 382.54 1018.03 383.66 1018.81 383.82 1019.97
  C 384.77 1027.02 387.49 1032.88 392.00 1037.53
  C 394.73 1040.35 401.87 1042.27 405.19 1042.92
  C 410.52 1043.96 416.06 1043.49 421.76 1043.23
  C 428.58 1042.93 435.05 1040.87 441.17 1037.06
  C 447.18 1033.32 449.30 1027.75 447.52 1020.34
  C 447.49 1020.23 447.45 1020.12 447.40 1020.02
  L 445.25 1016.31
  C 444.90 1015.71 445.38 1014.96 446.08 1015.03
  C 451.23 1015.53 455.85 1017.45 459.94 1020.79
  C 473.39 1031.76 467.27 1049.32 452.10 1054.34
  C 448.39 1055.57 444.54 1056.60 440.57 1057.44
  C 438.02 1057.99 436.53 1058.34 436.09 1058.50
  C 434.04 1059.24 432.54 1059.65 431.61 1059.72
  C 431.35 1059.74 431.24 1060.08 431.45 1060.24
  C 433.31 1061.73 435.25 1062.57 437.27 1062.76
  C 445.42 1063.53 456.95 1061.95 464.79 1057.23
  C 465.15 1057.02 465.61 1057.14 465.81 1057.51
  C 470.46 1066.06 473.83 1075.18 475.91 1084.87
  C 477.18 1090.80 476.93 1096.35 475.14 1101.54
  Z"
/>
<path stroke="#44a9b4" stroke-width="2.00" fill="none" stroke-linecap="butt" d="
  M 266.90 1089.68
  C 267.73 1093.82 272.53 1095.31 276.25 1094.86
  C 280.89 1094.30 285.30 1093.25 289.49 1091.72
  C 298.19 1088.53 306.68 1085.58 314.12 1080.40
  C 319.00 1077.01 325.20 1068.60 319.66 1063.05"
/>
<path fill="#1897a4" d="
  M 266.90 1089.68
  C 267.73 1093.82 272.53 1095.31 276.25 1094.86
  C 280.89 1094.30 285.30 1093.25 289.49 1091.72
  C 298.19 1088.53 306.68 1085.58 314.12 1080.40
  C 319.00 1077.01 325.20 1068.60 319.66 1063.05
  C 326.10 1061.52 333.26 1060.93 341.15 1061.27
  C 345.14 1061.44 347.78 1061.77 349.05 1062.25
  C 357.64 1065.50 362.95 1067.58 364.96 1068.49
  C 366.88 1069.36 368.79 1070.60 370.70 1072.19
  C 377.18 1077.59 382.57 1082.90 386.86 1088.13
  C 389.23 1091.02 392.37 1093.55 396.28 1095.72
  C 396.56 1095.87 396.90 1095.81 397.11 1095.58
  C 398.97 1093.47 400.02 1091.91 400.25 1090.88
  C 401.41 1085.76 401.40 1081.48 400.22 1078.05
  C 398.84 1074.00 396.80 1070.67 398.70 1066.61
  C 400.32 1063.16 401.97 1060.16 398.08 1057.96
  C 392.51 1054.82 387.07 1051.14 381.60 1048.68
  C 379.63 1047.79 377.30 1046.19 374.62 1043.86
  C 367.60 1037.78 370.88 1030.36 378.62 1027.85
  C 379.26 1027.65 379.95 1027.85 380.38 1028.36
  C 385.54 1034.41 387.95 1037.86 392.37 1041.42
  C 403.04 1049.98 425.73 1048.22 438.43 1043.77
  C 448.08 1040.40 449.87 1032.56 454.09 1024.44
  C 454.41 1023.84 455.21 1023.70 455.70 1024.17
  C 460.38 1028.59 462.33 1034.08 461.56 1040.63
  C 461.51 1041.06 461.29 1041.45 460.95 1041.72
  C 456.23 1045.39 452.75 1047.66 450.50 1048.52
  C 444.84 1050.69 436.32 1052.55 430.01 1057.28
  C 429.71 1057.51 429.60 1057.91 429.76 1058.25
  C 433.27 1066.00 439.60 1066.25 447.84 1066.00
  C 449.25 1065.96 454.58 1065.34 463.82 1064.14
  C 464.14 1064.10 464.46 1064.27 464.60 1064.56
  C 466.55 1068.63 467.70 1071.66 468.06 1073.65
  C 469.20 1079.97 470.36 1085.66 471.55 1090.71
  C 471.63 1091.04 471.66 1091.37 471.65 1091.71
  C 471.43 1097.30 470.88 1101.27 465.81 1104.45
  C 453.48 1112.20 446.22 1117.16 435.11 1121.13
  C 431.22 1122.52 425.96 1124.19 419.34 1126.14
  C 415.26 1127.34 412.86 1129.24 407.79 1131.55
  C 406.00 1132.37 403.42 1133.06 400.07 1133.63
  C 389.90 1135.36 378.06 1137.71 364.57 1140.66
  C 360.98 1141.44 354.46 1142.16 350.01 1142.28
  C 338.37 1142.61 326.15 1142.73 313.34 1142.64
  C 304.47 1142.59 297.46 1142.08 292.30 1141.12
  C 277.56 1138.38 258.01 1134.42 251.19 1119.53
  C 247.20 1110.82 250.03 1098.69 254.88 1091.00
  C 258.04 1085.99 262.32 1086.66 266.90 1089.68
  Z"
/>
<path fill="#ca7361" d="
  M 388.32 1063.81
  L 387.13 1068.77
  C 383.68 1065.08 379.69 1062.03 375.14 1059.62
  C 375.04 1059.56 374.99 1059.44 375.03 1059.33
  L 375.15 1059.03
  C 375.21 1058.87 375.40 1058.80 375.56 1058.88
  C 379.69 1060.99 383.94 1062.63 388.32 1063.81
  Z"
/>
<path fill="#6fbbc4" d="
  M 809.92 1077.28
  C 811.25 1079.73 811.74 1083.17 809.12 1085.09
  C 805.63 1087.65 801.76 1088.72 797.53 1088.31
  C 785.52 1087.15 774.29 1084.01 763.86 1078.89
  C 760.27 1077.14 757.60 1074.48 755.84 1070.93
  C 752.66 1064.51 758.23 1061.21 763.47 1059.74
  C 770.56 1059.03 777.57 1059.71 784.50 1061.79
  C 794.67 1064.84 803.64 1068.12 809.92 1077.28
  Z"
/>
<path fill="#6fbbc4" d="
  M 319.66 1063.05
  C 325.20 1068.60 319.00 1077.01 314.12 1080.40
  C 306.68 1085.58 298.19 1088.53 289.49 1091.72
  C 285.30 1093.25 280.89 1094.30 276.25 1094.86
  C 272.53 1095.31 267.73 1093.82 266.90 1089.68
  C 266.44 1082.04 270.73 1078.70 277.01 1074.14
  C 286.56 1067.19 297.23 1062.88 309.02 1061.20
  C 312.70 1060.68 316.25 1061.30 319.66 1063.05
  Z"
/>
<path fill="#2b8c97" d="
  M 465.77 1103.58
  C 465.66 1103.66 465.50 1103.64 465.42 1103.53
  L 465.41 1103.52
  C 465.33 1103.42 465.36 1103.28 465.46 1103.20
  C 469.43 1100.17 470.45 1096.01 470.87 1091.26
  C 470.88 1091.15 470.97 1091.07 471.08 1091.08
  L 471.09 1091.08
  C 471.18 1091.09 471.25 1091.16 471.25 1091.25
  C 471.50 1096.47 469.68 1100.58 465.77 1103.58
  Z"
/>
<path fill="#253034" d="
  M 829.20 1126.70
  L 831.79 1134.78
  C 829.96 1136.45 827.95 1137.86 825.76 1138.99
  C 816.45 1143.77 808.74 1145.79 798.25 1148.75
  C 793.98 1149.95 789.93 1150.71 786.10 1151.04
  C 780.40 1151.52 773.97 1152.86 767.27 1153.14
  C 751.50 1153.80 735.79 1152.95 720.14 1150.60
  C 707.25 1148.66 699.37 1147.44 696.51 1146.93
  C 682.61 1144.45 663.37 1138.12 651.95 1134.75
  C 639.86 1131.19 629.37 1127.13 618.46 1122.03
  C 612.30 1119.15 606.18 1115.78 600.09 1111.92
  C 600.30 1108.55 600.01 1105.24 599.24 1102.00
  C 611.24 1109.31 621.21 1114.67 629.15 1118.10
  C 634.30 1120.32 645.21 1124.24 661.87 1129.87
  C 668.52 1132.11 677.51 1134.38 688.84 1136.67
  C 699.01 1138.72 708.13 1140.43 716.20 1141.78
  C 726.77 1143.55 738.29 1144.66 750.77 1145.11
  C 761.06 1145.48 770.84 1145.05 780.09 1143.82
  C 781.34 1143.65 784.23 1143.21 788.76 1142.48
  C 803.81 1140.08 817.67 1135.29 829.20 1126.70
  Z"
/>
<path fill="#253034" d="
  M 475.14 1101.54
  C 472.49 1106.01 471.29 1110.41 471.54 1114.73
  C 469.69 1116.18 467.80 1117.54 465.89 1118.82
  C 456.11 1125.39 446.26 1130.72 436.35 1134.80
  C 426.48 1138.87 417.74 1142.05 410.15 1144.35
  C 400.08 1147.40 388.73 1150.04 376.09 1152.28
  C 362.65 1154.66 349.13 1155.45 335.94 1155.87
  C 316.13 1156.52 296.60 1154.92 277.34 1151.09
  C 269.03 1149.44 261.18 1146.55 253.77 1142.43
  L 255.97 1135.15
  C 265.80 1139.87 276.14 1143.08 286.99 1144.77
  C 309.46 1148.27 332.04 1148.97 354.75 1146.88
  C 355.99 1146.77 361.43 1146.03 371.07 1144.66
  C 376.93 1143.83 382.34 1142.86 387.29 1141.76
  C 398.84 1139.20 407.06 1137.08 411.94 1135.41
  C 426.88 1130.29 437.48 1126.45 448.96 1119.99
  C 452.09 1118.22 456.51 1115.24 462.22 1111.04
  C 466.31 1108.03 470.61 1104.87 475.14 1101.54
  Z"
/>
<path fill="#2b8c97" d="
  M 253.77 1142.43
  C 261.18 1146.55 269.03 1149.44 277.34 1151.09
  C 296.60 1154.92 316.13 1156.52 335.94 1155.87
  C 349.13 1155.45 362.65 1154.66 376.09 1152.28
  C 388.73 1150.04 400.08 1147.40 410.15 1144.35
  C 417.74 1142.05 426.48 1138.87 436.35 1134.80
  C 446.26 1130.72 456.11 1125.39 465.89 1118.82
  C 467.80 1117.54 469.69 1116.18 471.54 1114.73
  L 476.33 1110.36
  C 476.56 1110.15 476.93 1110.31 476.93 1110.62
  L 476.93 1119.02
  C 476.93 1119.34 476.84 1119.66 476.68 1119.93
  C 475.07 1122.68 472.97 1125.00 470.38 1126.89
  C 462.53 1132.61 456.59 1135.62 445.30 1141.55
  C 443.87 1142.30 437.17 1145.15 425.21 1150.09
  C 418.07 1153.04 411.17 1155.31 404.50 1156.91
  C 391.31 1160.08 383.91 1161.80 382.31 1162.08
  C 378.29 1162.78 370.29 1163.92 358.30 1165.51
  C 341.77 1167.69 323.10 1167.24 308.75 1167.06
  C 299.19 1166.94 291.44 1165.46 281.90 1163.48
  C 271.29 1161.27 261.55 1157.98 252.70 1153.60
  C 251.02 1152.77 249.19 1151.39 247.20 1149.48
  C 246.96 1149.25 246.76 1148.99 246.61 1148.70
  C 244.70 1145.11 244.06 1141.21 244.69 1136.99
  C 244.74 1136.67 245.13 1136.54 245.36 1136.77
  C 247.77 1139.10 250.58 1140.99 253.77 1142.43
  Z"
/>
<path fill="#2b8c97" d="
  M 600.09 1111.92
  C 606.18 1115.78 612.30 1119.15 618.46 1122.03
  C 629.37 1127.13 639.86 1131.19 651.95 1134.75
  C 663.37 1138.12 682.61 1144.45 696.51 1146.93
  C 699.37 1147.44 707.25 1148.66 720.14 1150.60
  C 735.79 1152.95 751.50 1153.80 767.27 1153.14
  C 773.97 1152.86 780.40 1151.52 786.10 1151.04
  C 789.93 1150.71 793.98 1149.95 798.25 1148.75
  C 808.74 1145.79 816.45 1143.77 825.76 1138.99
  C 827.95 1137.86 829.96 1136.45 831.79 1134.78
  L 834.41 1132.52
  C 834.73 1132.25 835.22 1132.48 835.21 1132.90
  C 835.14 1138.21 833.47 1142.98 830.20 1147.20
  C 826.79 1151.59 816.11 1156.77 811.42 1158.49
  C 810.80 1158.72 807.35 1159.68 801.07 1161.35
  C 793.45 1163.39 787.89 1163.58 778.50 1165.02
  C 767.30 1166.74 756.19 1167.08 743.89 1166.63
  C 737.05 1166.38 730.85 1165.83 725.30 1164.99
  C 718.50 1163.97 709.11 1163.35 700.62 1161.69
  C 690.25 1159.66 680.81 1157.34 672.30 1154.74
  C 668.16 1153.48 663.51 1152.83 659.67 1151.60
  C 645.44 1147.05 631.48 1141.08 617.79 1133.67
  C 612.62 1130.88 607.45 1126.74 602.83 1123.44
  C 600.68 1121.91 599.43 1119.91 599.09 1117.45
  C 598.76 1115.10 599.10 1113.25 600.09 1111.92
  Z"
/>
</svg>
